<?xml version="1.0" encoding="utf-8" standalone="no"?>
<!DOCTYPE svg PUBLIC "-//W3C//DTD SVG 1.1//EN"
  "http://www.w3.org/Graphics/SVG/1.1/DTD/svg11.dtd">
<svg xmlns:xlink="http://www.w3.org/1999/xlink" width="460.8pt" height="345.6pt" viewBox="0 0 460.8 345.6" xmlns="http://www.w3.org/2000/svg" version="1.1">
 <metadata>
  <rdf:RDF xmlns:dc="http://purl.org/dc/elements/1.1/" xmlns:cc="http://creativecommons.org/ns#" xmlns:rdf="http://www.w3.org/1999/02/22-rdf-syntax-ns#">
   <cc:Work>
    <dc:type rdf:resource="http://purl.org/dc/dcmitype/StillImage"/>
    <dc:date>2025-05-26T10:44:51.186698</dc:date>
    <dc:format>image/svg+xml</dc:format>
    <dc:creator>
     <cc:Agent>
      <dc:title>Matplotlib v3.10.1, https://matplotlib.org/</dc:title>
     </cc:Agent>
    </dc:creator>
   </cc:Work>
  </rdf:RDF>
 </metadata>
 <defs>
  <style type="text/css">*{stroke-linejoin: round; stroke-linecap: butt}</style>
 </defs>
 <g id="figure_1">
  <g id="patch_1">
   <path d="M 0 345.6 
L 460.8 345.6 
L 460.8 0 
L 0 0 
z
" style="fill: #ffffff"/>
  </g>
  <g id="axes_1">
   <g id="patch_2">
    <path d="M 41.278365 312.24351 
L 457.79976 312.24351 
L 457.79976 3.00024 
L 41.278365 3.00024 
z
" style="fill: #ffffff"/>
   </g>
   <g id="patch_3">
    <path d="M 60.211156 102030.617193 
L 64.372209 102030.617193 
L 64.372209 17.056752 
L 60.211156 17.056752 
z
" clip-path="url(#p19071ebee3)" style="fill: #1f77b4"/>
   </g>
   <g id="patch_4">
    <path d="M 64.372209 102030.617193 
L 68.533261 102030.617193 
L 68.533261 57.922686 
L 64.372209 57.922686 
z
" clip-path="url(#p19071ebee3)" style="fill: #1f77b4"/>
   </g>
   <g id="patch_5">
    <path d="M 68.533261 102030.617193 
L 72.694314 102030.617193 
L 72.694314 78.002122 
L 68.533261 78.002122 
z
" clip-path="url(#p19071ebee3)" style="fill: #1f77b4"/>
   </g>
   <g id="patch_6">
    <path d="M 72.694314 102030.617193 
L 76.855367 102030.617193 
L 76.855367 109.236049 
L 72.694314 109.236049 
z
" clip-path="url(#p19071ebee3)" style="fill: #1f77b4"/>
   </g>
   <g id="patch_7">
    <path d="M 76.855367 102030.617193 
L 81.01642 102030.617193 
L 81.01642 126.239243 
L 76.855367 126.239243 
z
" clip-path="url(#p19071ebee3)" style="fill: #1f77b4"/>
   </g>
   <g id="patch_8">
    <path d="M 81.01642 102030.617193 
L 85.177473 102030.617193 
L 85.177473 150.964094 
L 81.01642 150.964094 
z
" clip-path="url(#p19071ebee3)" style="fill: #1f77b4"/>
   </g>
   <g id="patch_9">
    <path d="M 85.177473 102030.617193 
L 89.338526 102030.617193 
L 89.338526 149.413695 
L 85.177473 149.413695 
z
" clip-path="url(#p19071ebee3)" style="fill: #1f77b4"/>
   </g>
   <g id="patch_10">
    <path d="M 89.338526 102030.617193 
L 93.499579 102030.617193 
L 93.499579 145.064433 
L 89.338526 145.064433 
z
" clip-path="url(#p19071ebee3)" style="fill: #1f77b4"/>
   </g>
   <g id="patch_11">
    <path d="M 93.499579 102030.617193 
L 97.660632 102030.617193 
L 97.660632 219.02378 
L 93.499579 219.02378 
z
" clip-path="url(#p19071ebee3)" style="fill: #1f77b4"/>
   </g>
   <g id="patch_12">
    <path d="M 97.660632 102030.617193 
L 101.821685 102030.617193 
L 101.821685 184.862833 
L 97.660632 184.862833 
z
" clip-path="url(#p19071ebee3)" style="fill: #1f77b4"/>
   </g>
   <g id="patch_13">
    <path d="M 101.821685 102030.617193 
L 105.982738 102030.617193 
L 105.982738 188.399267 
L 101.821685 188.399267 
z
" clip-path="url(#p19071ebee3)" style="fill: #1f77b4"/>
   </g>
   <g id="patch_14">
    <path d="M 105.982738 102030.617193 
L 110.14379 102030.617193 
L 110.14379 192.243589 
L 105.982738 192.243589 
z
" clip-path="url(#p19071ebee3)" style="fill: #1f77b4"/>
   </g>
   <g id="patch_15">
    <path d="M 110.14379 102030.617193 
L 114.304843 102030.617193 
L 114.304843 227.079081 
L 110.14379 227.079081 
z
" clip-path="url(#p19071ebee3)" style="fill: #1f77b4"/>
   </g>
   <g id="patch_16">
    <path d="M 114.304843 102030.617193 
L 118.465896 102030.617193 
L 118.465896 219.02378 
L 114.304843 219.02378 
z
" clip-path="url(#p19071ebee3)" style="fill: #1f77b4"/>
   </g>
   <g id="patch_17">
    <path d="M 118.465896 102030.617193 
L 122.626949 102030.617193 
L 122.626949 219.02378 
L 118.465896 219.02378 
z
" clip-path="url(#p19071ebee3)" style="fill: #1f77b4"/>
   </g>
   <g id="patch_18">
    <path d="M 122.626949 102030.617193 
L 126.788002 102030.617193 
L 126.788002 267.562485 
L 122.626949 267.562485 
z
" clip-path="url(#p19071ebee3)" style="fill: #1f77b4"/>
   </g>
   <g id="patch_19">
    <path d="M 126.788002 102030.617193 
L 130.949055 102030.617193 
L 130.949055 298.186998 
L 126.788002 298.186998 
z
" clip-path="url(#p19071ebee3)" style="fill: #1f77b4"/>
   </g>
   <g id="patch_20">
    <path d="M 130.949055 102030.617193 
L 135.110108 102030.617193 
L 135.110108 249.648293 
L 130.949055 249.648293 
z
" clip-path="url(#p19071ebee3)" style="fill: #1f77b4"/>
   </g>
   <g id="patch_21">
    <path d="M 135.110108 102030.617193 
L 139.271161 102030.617193 
L 139.271161 298.186998 
L 135.110108 298.186998 
z
" clip-path="url(#p19071ebee3)" style="fill: #1f77b4"/>
   </g>
   <g id="patch_22">
    <path d="M 139.271161 102030.617193 
L 143.432214 102030.617193 
L 143.432214 102030.617193 
L 139.271161 102030.617193 
z
" clip-path="url(#p19071ebee3)" style="fill: #1f77b4"/>
   </g>
   <g id="patch_23">
    <path d="M 143.432214 102030.617193 
L 147.593267 102030.617193 
L 147.593267 102030.617193 
L 143.432214 102030.617193 
z
" clip-path="url(#p19071ebee3)" style="fill: #1f77b4"/>
   </g>
   <g id="patch_24">
    <path d="M 147.593267 102030.617193 
L 151.754319 102030.617193 
L 151.754319 102030.617193 
L 147.593267 102030.617193 
z
" clip-path="url(#p19071ebee3)" style="fill: #1f77b4"/>
   </g>
   <g id="patch_25">
    <path d="M 151.754319 102030.617193 
L 155.915372 102030.617193 
L 155.915372 298.186998 
L 151.754319 298.186998 
z
" clip-path="url(#p19071ebee3)" style="fill: #1f77b4"/>
   </g>
   <g id="patch_26">
    <path d="M 155.915372 102030.617193 
L 160.076425 102030.617193 
L 160.076425 298.186998 
L 155.915372 298.186998 
z
" clip-path="url(#p19071ebee3)" style="fill: #1f77b4"/>
   </g>
   <g id="patch_27">
    <path d="M 160.076425 102030.617193 
L 164.237478 102030.617193 
L 164.237478 298.186998 
L 160.076425 298.186998 
z
" clip-path="url(#p19071ebee3)" style="fill: #1f77b4"/>
   </g>
   <g id="patch_28">
    <path d="M 164.237478 102030.617193 
L 168.398531 102030.617193 
L 168.398531 102030.617193 
L 164.237478 102030.617193 
z
" clip-path="url(#p19071ebee3)" style="fill: #1f77b4"/>
   </g>
   <g id="patch_29">
    <path d="M 168.398531 102030.617193 
L 172.559584 102030.617193 
L 172.559584 102030.617193 
L 168.398531 102030.617193 
z
" clip-path="url(#p19071ebee3)" style="fill: #1f77b4"/>
   </g>
   <g id="patch_30">
    <path d="M 172.559584 102030.617193 
L 176.720637 102030.617193 
L 176.720637 102030.617193 
L 172.559584 102030.617193 
z
" clip-path="url(#p19071ebee3)" style="fill: #1f77b4"/>
   </g>
   <g id="patch_31">
    <path d="M 176.720637 102030.617193 
L 180.88169 102030.617193 
L 180.88169 102030.617193 
L 176.720637 102030.617193 
z
" clip-path="url(#p19071ebee3)" style="fill: #1f77b4"/>
   </g>
   <g id="patch_32">
    <path d="M 180.88169 102030.617193 
L 185.042743 102030.617193 
L 185.042743 298.186998 
L 180.88169 298.186998 
z
" clip-path="url(#p19071ebee3)" style="fill: #1f77b4"/>
   </g>
   <g id="patch_33">
    <path d="M 185.042743 102030.617193 
L 189.203795 102030.617193 
L 189.203795 298.186998 
L 185.042743 298.186998 
z
" clip-path="url(#p19071ebee3)" style="fill: #1f77b4"/>
   </g>
   <g id="patch_34">
    <path d="M 189.203795 102030.617193 
L 193.364848 102030.617193 
L 193.364848 102030.617193 
L 189.203795 102030.617193 
z
" clip-path="url(#p19071ebee3)" style="fill: #1f77b4"/>
   </g>
   <g id="patch_35">
    <path d="M 193.364848 102030.617193 
L 197.525901 102030.617193 
L 197.525901 298.186998 
L 193.364848 298.186998 
z
" clip-path="url(#p19071ebee3)" style="fill: #1f77b4"/>
   </g>
   <g id="patch_36">
    <path d="M 197.525901 102030.617193 
L 201.686954 102030.617193 
L 201.686954 102030.617193 
L 197.525901 102030.617193 
z
" clip-path="url(#p19071ebee3)" style="fill: #1f77b4"/>
   </g>
   <g id="patch_37">
    <path d="M 201.686954 102030.617193 
L 205.848007 102030.617193 
L 205.848007 102030.617193 
L 201.686954 102030.617193 
z
" clip-path="url(#p19071ebee3)" style="fill: #1f77b4"/>
   </g>
   <g id="patch_38">
    <path d="M 205.848007 102030.617193 
L 210.00906 102030.617193 
L 210.00906 267.562485 
L 205.848007 267.562485 
z
" clip-path="url(#p19071ebee3)" style="fill: #1f77b4"/>
   </g>
   <g id="patch_39">
    <path d="M 210.00906 102030.617193 
L 214.170113 102030.617193 
L 214.170113 102030.617193 
L 210.00906 102030.617193 
z
" clip-path="url(#p19071ebee3)" style="fill: #1f77b4"/>
   </g>
   <g id="patch_40">
    <path d="M 214.170113 102030.617193 
L 218.331166 102030.617193 
L 218.331166 102030.617193 
L 214.170113 102030.617193 
z
" clip-path="url(#p19071ebee3)" style="fill: #1f77b4"/>
   </g>
   <g id="patch_41">
    <path d="M 218.331166 102030.617193 
L 222.492219 102030.617193 
L 222.492219 102030.617193 
L 218.331166 102030.617193 
z
" clip-path="url(#p19071ebee3)" style="fill: #1f77b4"/>
   </g>
   <g id="patch_42">
    <path d="M 222.492219 102030.617193 
L 226.653272 102030.617193 
L 226.653272 102030.617193 
L 222.492219 102030.617193 
z
" clip-path="url(#p19071ebee3)" style="fill: #1f77b4"/>
   </g>
   <g id="patch_43">
    <path d="M 226.653272 102030.617193 
L 230.814324 102030.617193 
L 230.814324 102030.617193 
L 226.653272 102030.617193 
z
" clip-path="url(#p19071ebee3)" style="fill: #1f77b4"/>
   </g>
   <g id="patch_44">
    <path d="M 230.814324 102030.617193 
L 234.975377 102030.617193 
L 234.975377 102030.617193 
L 230.814324 102030.617193 
z
" clip-path="url(#p19071ebee3)" style="fill: #1f77b4"/>
   </g>
   <g id="patch_45">
    <path d="M 234.975377 102030.617193 
L 239.13643 102030.617193 
L 239.13643 102030.617193 
L 234.975377 102030.617193 
z
" clip-path="url(#p19071ebee3)" style="fill: #1f77b4"/>
   </g>
   <g id="patch_46">
    <path d="M 239.13643 102030.617193 
L 243.297483 102030.617193 
L 243.297483 102030.617193 
L 239.13643 102030.617193 
z
" clip-path="url(#p19071ebee3)" style="fill: #1f77b4"/>
   </g>
   <g id="patch_47">
    <path d="M 243.297483 102030.617193 
L 247.458536 102030.617193 
L 247.458536 102030.617193 
L 243.297483 102030.617193 
z
" clip-path="url(#p19071ebee3)" style="fill: #1f77b4"/>
   </g>
   <g id="patch_48">
    <path d="M 247.458536 102030.617193 
L 251.619589 102030.617193 
L 251.619589 102030.617193 
L 247.458536 102030.617193 
z
" clip-path="url(#p19071ebee3)" style="fill: #1f77b4"/>
   </g>
   <g id="patch_49">
    <path d="M 251.619589 102030.617193 
L 255.780642 102030.617193 
L 255.780642 102030.617193 
L 251.619589 102030.617193 
z
" clip-path="url(#p19071ebee3)" style="fill: #1f77b4"/>
   </g>
   <g id="patch_50">
    <path d="M 255.780642 102030.617193 
L 259.941695 102030.617193 
L 259.941695 102030.617193 
L 255.780642 102030.617193 
z
" clip-path="url(#p19071ebee3)" style="fill: #1f77b4"/>
   </g>
   <g id="patch_51">
    <path d="M 259.941695 102030.617193 
L 264.102748 102030.617193 
L 264.102748 102030.617193 
L 259.941695 102030.617193 
z
" clip-path="url(#p19071ebee3)" style="fill: #1f77b4"/>
   </g>
   <g id="patch_52">
    <path d="M 264.102748 102030.617193 
L 268.263801 102030.617193 
L 268.263801 102030.617193 
L 264.102748 102030.617193 
z
" clip-path="url(#p19071ebee3)" style="fill: #1f77b4"/>
   </g>
   <g id="patch_53">
    <path d="M 268.263801 102030.617193 
L 272.424853 102030.617193 
L 272.424853 102030.617193 
L 268.263801 102030.617193 
z
" clip-path="url(#p19071ebee3)" style="fill: #1f77b4"/>
   </g>
   <g id="patch_54">
    <path d="M 272.424853 102030.617193 
L 276.585906 102030.617193 
L 276.585906 102030.617193 
L 272.424853 102030.617193 
z
" clip-path="url(#p19071ebee3)" style="fill: #1f77b4"/>
   </g>
   <g id="patch_55">
    <path d="M 276.585906 102030.617193 
L 280.746959 102030.617193 
L 280.746959 102030.617193 
L 276.585906 102030.617193 
z
" clip-path="url(#p19071ebee3)" style="fill: #1f77b4"/>
   </g>
   <g id="patch_56">
    <path d="M 280.746959 102030.617193 
L 284.908012 102030.617193 
L 284.908012 102030.617193 
L 280.746959 102030.617193 
z
" clip-path="url(#p19071ebee3)" style="fill: #1f77b4"/>
   </g>
   <g id="patch_57">
    <path d="M 284.908012 102030.617193 
L 289.069065 102030.617193 
L 289.069065 102030.617193 
L 284.908012 102030.617193 
z
" clip-path="url(#p19071ebee3)" style="fill: #1f77b4"/>
   </g>
   <g id="patch_58">
    <path d="M 289.069065 102030.617193 
L 293.230118 102030.617193 
L 293.230118 102030.617193 
L 289.069065 102030.617193 
z
" clip-path="url(#p19071ebee3)" style="fill: #1f77b4"/>
   </g>
   <g id="patch_59">
    <path d="M 293.230118 102030.617193 
L 297.391171 102030.617193 
L 297.391171 102030.617193 
L 293.230118 102030.617193 
z
" clip-path="url(#p19071ebee3)" style="fill: #1f77b4"/>
   </g>
   <g id="patch_60">
    <path d="M 297.391171 102030.617193 
L 301.552224 102030.617193 
L 301.552224 102030.617193 
L 297.391171 102030.617193 
z
" clip-path="url(#p19071ebee3)" style="fill: #1f77b4"/>
   </g>
   <g id="patch_61">
    <path d="M 301.552224 102030.617193 
L 305.713277 102030.617193 
L 305.713277 102030.617193 
L 301.552224 102030.617193 
z
" clip-path="url(#p19071ebee3)" style="fill: #1f77b4"/>
   </g>
   <g id="patch_62">
    <path d="M 305.713277 102030.617193 
L 309.87433 102030.617193 
L 309.87433 102030.617193 
L 305.713277 102030.617193 
z
" clip-path="url(#p19071ebee3)" style="fill: #1f77b4"/>
   </g>
   <g id="patch_63">
    <path d="M 309.87433 102030.617193 
L 314.035382 102030.617193 
L 314.035382 102030.617193 
L 309.87433 102030.617193 
z
" clip-path="url(#p19071ebee3)" style="fill: #1f77b4"/>
   </g>
   <g id="patch_64">
    <path d="M 314.035382 102030.617193 
L 318.196435 102030.617193 
L 318.196435 102030.617193 
L 314.035382 102030.617193 
z
" clip-path="url(#p19071ebee3)" style="fill: #1f77b4"/>
   </g>
   <g id="patch_65">
    <path d="M 318.196435 102030.617193 
L 322.357488 102030.617193 
L 322.357488 102030.617193 
L 318.196435 102030.617193 
z
" clip-path="url(#p19071ebee3)" style="fill: #1f77b4"/>
   </g>
   <g id="patch_66">
    <path d="M 322.357488 102030.617193 
L 326.518541 102030.617193 
L 326.518541 102030.617193 
L 322.357488 102030.617193 
z
" clip-path="url(#p19071ebee3)" style="fill: #1f77b4"/>
   </g>
   <g id="patch_67">
    <path d="M 326.518541 102030.617193 
L 330.679594 102030.617193 
L 330.679594 102030.617193 
L 326.518541 102030.617193 
z
" clip-path="url(#p19071ebee3)" style="fill: #1f77b4"/>
   </g>
   <g id="patch_68">
    <path d="M 330.679594 102030.617193 
L 334.840647 102030.617193 
L 334.840647 102030.617193 
L 330.679594 102030.617193 
z
" clip-path="url(#p19071ebee3)" style="fill: #1f77b4"/>
   </g>
   <g id="patch_69">
    <path d="M 334.840647 102030.617193 
L 339.0017 102030.617193 
L 339.0017 102030.617193 
L 334.840647 102030.617193 
z
" clip-path="url(#p19071ebee3)" style="fill: #1f77b4"/>
   </g>
   <g id="patch_70">
    <path d="M 339.0017 102030.617193 
L 343.162753 102030.617193 
L 343.162753 102030.617193 
L 339.0017 102030.617193 
z
" clip-path="url(#p19071ebee3)" style="fill: #1f77b4"/>
   </g>
   <g id="patch_71">
    <path d="M 343.162753 102030.617193 
L 347.323806 102030.617193 
L 347.323806 102030.617193 
L 343.162753 102030.617193 
z
" clip-path="url(#p19071ebee3)" style="fill: #1f77b4"/>
   </g>
   <g id="patch_72">
    <path d="M 347.323806 102030.617193 
L 351.484858 102030.617193 
L 351.484858 102030.617193 
L 347.323806 102030.617193 
z
" clip-path="url(#p19071ebee3)" style="fill: #1f77b4"/>
   </g>
   <g id="patch_73">
    <path d="M 351.484858 102030.617193 
L 355.645911 102030.617193 
L 355.645911 102030.617193 
L 351.484858 102030.617193 
z
" clip-path="url(#p19071ebee3)" style="fill: #1f77b4"/>
   </g>
   <g id="patch_74">
    <path d="M 355.645911 102030.617193 
L 359.806964 102030.617193 
L 359.806964 102030.617193 
L 355.645911 102030.617193 
z
" clip-path="url(#p19071ebee3)" style="fill: #1f77b4"/>
   </g>
   <g id="patch_75">
    <path d="M 359.806964 102030.617193 
L 363.968017 102030.617193 
L 363.968017 102030.617193 
L 359.806964 102030.617193 
z
" clip-path="url(#p19071ebee3)" style="fill: #1f77b4"/>
   </g>
   <g id="patch_76">
    <path d="M 363.968017 102030.617193 
L 368.12907 102030.617193 
L 368.12907 102030.617193 
L 363.968017 102030.617193 
z
" clip-path="url(#p19071ebee3)" style="fill: #1f77b4"/>
   </g>
   <g id="patch_77">
    <path d="M 368.12907 102030.617193 
L 372.290123 102030.617193 
L 372.290123 102030.617193 
L 368.12907 102030.617193 
z
" clip-path="url(#p19071ebee3)" style="fill: #1f77b4"/>
   </g>
   <g id="patch_78">
    <path d="M 372.290123 102030.617193 
L 376.451176 102030.617193 
L 376.451176 102030.617193 
L 372.290123 102030.617193 
z
" clip-path="url(#p19071ebee3)" style="fill: #1f77b4"/>
   </g>
   <g id="patch_79">
    <path d="M 376.451176 102030.617193 
L 380.612229 102030.617193 
L 380.612229 102030.617193 
L 376.451176 102030.617193 
z
" clip-path="url(#p19071ebee3)" style="fill: #1f77b4"/>
   </g>
   <g id="patch_80">
    <path d="M 380.612229 102030.617193 
L 384.773282 102030.617193 
L 384.773282 102030.617193 
L 380.612229 102030.617193 
z
" clip-path="url(#p19071ebee3)" style="fill: #1f77b4"/>
   </g>
   <g id="patch_81">
    <path d="M 384.773282 102030.617193 
L 388.934335 102030.617193 
L 388.934335 102030.617193 
L 384.773282 102030.617193 
z
" clip-path="url(#p19071ebee3)" style="fill: #1f77b4"/>
   </g>
   <g id="patch_82">
    <path d="M 388.934335 102030.617193 
L 393.095387 102030.617193 
L 393.095387 102030.617193 
L 388.934335 102030.617193 
z
" clip-path="url(#p19071ebee3)" style="fill: #1f77b4"/>
   </g>
   <g id="patch_83">
    <path d="M 393.095387 102030.617193 
L 397.25644 102030.617193 
L 397.25644 102030.617193 
L 393.095387 102030.617193 
z
" clip-path="url(#p19071ebee3)" style="fill: #1f77b4"/>
   </g>
   <g id="patch_84">
    <path d="M 397.25644 102030.617193 
L 401.417493 102030.617193 
L 401.417493 102030.617193 
L 397.25644 102030.617193 
z
" clip-path="url(#p19071ebee3)" style="fill: #1f77b4"/>
   </g>
   <g id="patch_85">
    <path d="M 401.417493 102030.617193 
L 405.578546 102030.617193 
L 405.578546 102030.617193 
L 401.417493 102030.617193 
z
" clip-path="url(#p19071ebee3)" style="fill: #1f77b4"/>
   </g>
   <g id="patch_86">
    <path d="M 405.578546 102030.617193 
L 409.739599 102030.617193 
L 409.739599 102030.617193 
L 405.578546 102030.617193 
z
" clip-path="url(#p19071ebee3)" style="fill: #1f77b4"/>
   </g>
   <g id="patch_87">
    <path d="M 409.739599 102030.617193 
L 413.900652 102030.617193 
L 413.900652 102030.617193 
L 409.739599 102030.617193 
z
" clip-path="url(#p19071ebee3)" style="fill: #1f77b4"/>
   </g>
   <g id="patch_88">
    <path d="M 413.900652 102030.617193 
L 418.061705 102030.617193 
L 418.061705 102030.617193 
L 413.900652 102030.617193 
z
" clip-path="url(#p19071ebee3)" style="fill: #1f77b4"/>
   </g>
   <g id="patch_89">
    <path d="M 418.061705 102030.617193 
L 422.222758 102030.617193 
L 422.222758 102030.617193 
L 418.061705 102030.617193 
z
" clip-path="url(#p19071ebee3)" style="fill: #1f77b4"/>
   </g>
   <g id="patch_90">
    <path d="M 422.222758 102030.617193 
L 426.383811 102030.617193 
L 426.383811 102030.617193 
L 422.222758 102030.617193 
z
" clip-path="url(#p19071ebee3)" style="fill: #1f77b4"/>
   </g>
   <g id="patch_91">
    <path d="M 426.383811 102030.617193 
L 430.544864 102030.617193 
L 430.544864 102030.617193 
L 426.383811 102030.617193 
z
" clip-path="url(#p19071ebee3)" style="fill: #1f77b4"/>
   </g>
   <g id="patch_92">
    <path d="M 430.544864 102030.617193 
L 434.705916 102030.617193 
L 434.705916 102030.617193 
L 430.544864 102030.617193 
z
" clip-path="url(#p19071ebee3)" style="fill: #1f77b4"/>
   </g>
   <g id="patch_93">
    <path d="M 434.705916 102030.617193 
L 438.866969 102030.617193 
L 438.866969 298.186998 
L 434.705916 298.186998 
z
" clip-path="url(#p19071ebee3)" style="fill: #1f77b4"/>
   </g>
   <g id="matplotlib.axis_1">
    <g id="xtick_1">
     <g id="line2d_1">
      <defs>
       <path id="ma0b6b2759d" d="M 0 0 
L 0 3.5 
" style="stroke: #000000; stroke-width: 0.8"/>
      </defs>
      <g>
       <use xlink:href="#ma0b6b2759d" x="56.050103" y="312.24351" style="stroke: #000000; stroke-width: 0.8"/>
      </g>
     </g>
     <g id="text_1">
      <!-- 0 -->
      <g transform="translate(52.868853 326.841947) scale(0.1 -0.1)">
       <defs>
        <path id="DejaVuSans-30" d="M 2034 4250 
Q 1547 4250 1301 3770 
Q 1056 3291 1056 2328 
Q 1056 1369 1301 889 
Q 1547 409 2034 409 
Q 2525 409 2770 889 
Q 3016 1369 3016 2328 
Q 3016 3291 2770 3770 
Q 2525 4250 2034 4250 
z
M 2034 4750 
Q 2819 4750 3233 4129 
Q 3647 3509 3647 2328 
Q 3647 1150 3233 529 
Q 2819 -91 2034 -91 
Q 1250 -91 836 529 
Q 422 1150 422 2328 
Q 422 3509 836 4129 
Q 1250 4750 2034 4750 
z
" transform="scale(0.015625)"/>
       </defs>
       <use xlink:href="#DejaVuSans-30"/>
      </g>
     </g>
    </g>
    <g id="xtick_2">
     <g id="line2d_2">
      <g>
       <use xlink:href="#ma0b6b2759d" x="139.271161" y="312.24351" style="stroke: #000000; stroke-width: 0.8"/>
      </g>
     </g>
     <g id="text_2">
      <!-- 20 -->
      <g transform="translate(132.908661 326.841947) scale(0.1 -0.1)">
       <defs>
        <path id="DejaVuSans-32" d="M 1228 531 
L 3431 531 
L 3431 0 
L 469 0 
L 469 531 
Q 828 903 1448 1529 
Q 2069 2156 2228 2338 
Q 2531 2678 2651 2914 
Q 2772 3150 2772 3378 
Q 2772 3750 2511 3984 
Q 2250 4219 1831 4219 
Q 1534 4219 1204 4116 
Q 875 4013 500 3803 
L 500 4441 
Q 881 4594 1212 4672 
Q 1544 4750 1819 4750 
Q 2544 4750 2975 4387 
Q 3406 4025 3406 3419 
Q 3406 3131 3298 2873 
Q 3191 2616 2906 2266 
Q 2828 2175 2409 1742 
Q 1991 1309 1228 531 
z
" transform="scale(0.015625)"/>
       </defs>
       <use xlink:href="#DejaVuSans-32"/>
       <use xlink:href="#DejaVuSans-30" transform="translate(63.623047 0)"/>
      </g>
     </g>
    </g>
    <g id="xtick_3">
     <g id="line2d_3">
      <g>
       <use xlink:href="#ma0b6b2759d" x="222.492219" y="312.24351" style="stroke: #000000; stroke-width: 0.8"/>
      </g>
     </g>
     <g id="text_3">
      <!-- 40 -->
      <g transform="translate(216.129719 326.841947) scale(0.1 -0.1)">
       <defs>
        <path id="DejaVuSans-34" d="M 2419 4116 
L 825 1625 
L 2419 1625 
L 2419 4116 
z
M 2253 4666 
L 3047 4666 
L 3047 1625 
L 3713 1625 
L 3713 1100 
L 3047 1100 
L 3047 0 
L 2419 0 
L 2419 1100 
L 313 1100 
L 313 1709 
L 2253 4666 
z
" transform="scale(0.015625)"/>
       </defs>
       <use xlink:href="#DejaVuSans-34"/>
       <use xlink:href="#DejaVuSans-30" transform="translate(63.623047 0)"/>
      </g>
     </g>
    </g>
    <g id="xtick_4">
     <g id="line2d_4">
      <g>
       <use xlink:href="#ma0b6b2759d" x="305.713277" y="312.24351" style="stroke: #000000; stroke-width: 0.8"/>
      </g>
     </g>
     <g id="text_4">
      <!-- 60 -->
      <g transform="translate(299.350777 326.841947) scale(0.1 -0.1)">
       <defs>
        <path id="DejaVuSans-36" d="M 2113 2584 
Q 1688 2584 1439 2293 
Q 1191 2003 1191 1497 
Q 1191 994 1439 701 
Q 1688 409 2113 409 
Q 2538 409 2786 701 
Q 3034 994 3034 1497 
Q 3034 2003 2786 2293 
Q 2538 2584 2113 2584 
z
M 3366 4563 
L 3366 3988 
Q 3128 4100 2886 4159 
Q 2644 4219 2406 4219 
Q 1781 4219 1451 3797 
Q 1122 3375 1075 2522 
Q 1259 2794 1537 2939 
Q 1816 3084 2150 3084 
Q 2853 3084 3261 2657 
Q 3669 2231 3669 1497 
Q 3669 778 3244 343 
Q 2819 -91 2113 -91 
Q 1303 -91 875 529 
Q 447 1150 447 2328 
Q 447 3434 972 4092 
Q 1497 4750 2381 4750 
Q 2619 4750 2861 4703 
Q 3103 4656 3366 4563 
z
" transform="scale(0.015625)"/>
       </defs>
       <use xlink:href="#DejaVuSans-36"/>
       <use xlink:href="#DejaVuSans-30" transform="translate(63.623047 0)"/>
      </g>
     </g>
    </g>
    <g id="xtick_5">
     <g id="line2d_5">
      <g>
       <use xlink:href="#ma0b6b2759d" x="388.934335" y="312.24351" style="stroke: #000000; stroke-width: 0.8"/>
      </g>
     </g>
     <g id="text_5">
      <!-- 80 -->
      <g transform="translate(382.571835 326.841947) scale(0.1 -0.1)">
       <defs>
        <path id="DejaVuSans-38" d="M 2034 2216 
Q 1584 2216 1326 1975 
Q 1069 1734 1069 1313 
Q 1069 891 1326 650 
Q 1584 409 2034 409 
Q 2484 409 2743 651 
Q 3003 894 3003 1313 
Q 3003 1734 2745 1975 
Q 2488 2216 2034 2216 
z
M 1403 2484 
Q 997 2584 770 2862 
Q 544 3141 544 3541 
Q 544 4100 942 4425 
Q 1341 4750 2034 4750 
Q 2731 4750 3128 4425 
Q 3525 4100 3525 3541 
Q 3525 3141 3298 2862 
Q 3072 2584 2669 2484 
Q 3125 2378 3379 2068 
Q 3634 1759 3634 1313 
Q 3634 634 3220 271 
Q 2806 -91 2034 -91 
Q 1263 -91 848 271 
Q 434 634 434 1313 
Q 434 1759 690 2068 
Q 947 2378 1403 2484 
z
M 1172 3481 
Q 1172 3119 1398 2916 
Q 1625 2713 2034 2713 
Q 2441 2713 2670 2916 
Q 2900 3119 2900 3481 
Q 2900 3844 2670 4047 
Q 2441 4250 2034 4250 
Q 1625 4250 1398 4047 
Q 1172 3844 1172 3481 
z
" transform="scale(0.015625)"/>
       </defs>
       <use xlink:href="#DejaVuSans-38"/>
       <use xlink:href="#DejaVuSans-30" transform="translate(63.623047 0)"/>
      </g>
     </g>
    </g>
    <g id="text_6">
     <!-- number of peptides contributing to epitope -->
     <g transform="translate(141.283594 340.520072) scale(0.1 -0.1)">
      <defs>
       <path id="DejaVuSans-6e" d="M 3513 2113 
L 3513 0 
L 2938 0 
L 2938 2094 
Q 2938 2591 2744 2837 
Q 2550 3084 2163 3084 
Q 1697 3084 1428 2787 
Q 1159 2491 1159 1978 
L 1159 0 
L 581 0 
L 581 3500 
L 1159 3500 
L 1159 2956 
Q 1366 3272 1645 3428 
Q 1925 3584 2291 3584 
Q 2894 3584 3203 3211 
Q 3513 2838 3513 2113 
z
" transform="scale(0.015625)"/>
       <path id="DejaVuSans-75" d="M 544 1381 
L 544 3500 
L 1119 3500 
L 1119 1403 
Q 1119 906 1312 657 
Q 1506 409 1894 409 
Q 2359 409 2629 706 
Q 2900 1003 2900 1516 
L 2900 3500 
L 3475 3500 
L 3475 0 
L 2900 0 
L 2900 538 
Q 2691 219 2414 64 
Q 2138 -91 1772 -91 
Q 1169 -91 856 284 
Q 544 659 544 1381 
z
M 1991 3584 
L 1991 3584 
z
" transform="scale(0.015625)"/>
       <path id="DejaVuSans-6d" d="M 3328 2828 
Q 3544 3216 3844 3400 
Q 4144 3584 4550 3584 
Q 5097 3584 5394 3201 
Q 5691 2819 5691 2113 
L 5691 0 
L 5113 0 
L 5113 2094 
Q 5113 2597 4934 2840 
Q 4756 3084 4391 3084 
Q 3944 3084 3684 2787 
Q 3425 2491 3425 1978 
L 3425 0 
L 2847 0 
L 2847 2094 
Q 2847 2600 2669 2842 
Q 2491 3084 2119 3084 
Q 1678 3084 1418 2786 
Q 1159 2488 1159 1978 
L 1159 0 
L 581 0 
L 581 3500 
L 1159 3500 
L 1159 2956 
Q 1356 3278 1631 3431 
Q 1906 3584 2284 3584 
Q 2666 3584 2933 3390 
Q 3200 3197 3328 2828 
z
" transform="scale(0.015625)"/>
       <path id="DejaVuSans-62" d="M 3116 1747 
Q 3116 2381 2855 2742 
Q 2594 3103 2138 3103 
Q 1681 3103 1420 2742 
Q 1159 2381 1159 1747 
Q 1159 1113 1420 752 
Q 1681 391 2138 391 
Q 2594 391 2855 752 
Q 3116 1113 3116 1747 
z
M 1159 2969 
Q 1341 3281 1617 3432 
Q 1894 3584 2278 3584 
Q 2916 3584 3314 3078 
Q 3713 2572 3713 1747 
Q 3713 922 3314 415 
Q 2916 -91 2278 -91 
Q 1894 -91 1617 61 
Q 1341 213 1159 525 
L 1159 0 
L 581 0 
L 581 4863 
L 1159 4863 
L 1159 2969 
z
" transform="scale(0.015625)"/>
       <path id="DejaVuSans-65" d="M 3597 1894 
L 3597 1613 
L 953 1613 
Q 991 1019 1311 708 
Q 1631 397 2203 397 
Q 2534 397 2845 478 
Q 3156 559 3463 722 
L 3463 178 
Q 3153 47 2828 -22 
Q 2503 -91 2169 -91 
Q 1331 -91 842 396 
Q 353 884 353 1716 
Q 353 2575 817 3079 
Q 1281 3584 2069 3584 
Q 2775 3584 3186 3129 
Q 3597 2675 3597 1894 
z
M 3022 2063 
Q 3016 2534 2758 2815 
Q 2500 3097 2075 3097 
Q 1594 3097 1305 2825 
Q 1016 2553 972 2059 
L 3022 2063 
z
" transform="scale(0.015625)"/>
       <path id="DejaVuSans-72" d="M 2631 2963 
Q 2534 3019 2420 3045 
Q 2306 3072 2169 3072 
Q 1681 3072 1420 2755 
Q 1159 2438 1159 1844 
L 1159 0 
L 581 0 
L 581 3500 
L 1159 3500 
L 1159 2956 
Q 1341 3275 1631 3429 
Q 1922 3584 2338 3584 
Q 2397 3584 2469 3576 
Q 2541 3569 2628 3553 
L 2631 2963 
z
" transform="scale(0.015625)"/>
       <path id="DejaVuSans-20" transform="scale(0.015625)"/>
       <path id="DejaVuSans-6f" d="M 1959 3097 
Q 1497 3097 1228 2736 
Q 959 2375 959 1747 
Q 959 1119 1226 758 
Q 1494 397 1959 397 
Q 2419 397 2687 759 
Q 2956 1122 2956 1747 
Q 2956 2369 2687 2733 
Q 2419 3097 1959 3097 
z
M 1959 3584 
Q 2709 3584 3137 3096 
Q 3566 2609 3566 1747 
Q 3566 888 3137 398 
Q 2709 -91 1959 -91 
Q 1206 -91 779 398 
Q 353 888 353 1747 
Q 353 2609 779 3096 
Q 1206 3584 1959 3584 
z
" transform="scale(0.015625)"/>
       <path id="DejaVuSans-66" d="M 2375 4863 
L 2375 4384 
L 1825 4384 
Q 1516 4384 1395 4259 
Q 1275 4134 1275 3809 
L 1275 3500 
L 2222 3500 
L 2222 3053 
L 1275 3053 
L 1275 0 
L 697 0 
L 697 3053 
L 147 3053 
L 147 3500 
L 697 3500 
L 697 3744 
Q 697 4328 969 4595 
Q 1241 4863 1831 4863 
L 2375 4863 
z
" transform="scale(0.015625)"/>
       <path id="DejaVuSans-70" d="M 1159 525 
L 1159 -1331 
L 581 -1331 
L 581 3500 
L 1159 3500 
L 1159 2969 
Q 1341 3281 1617 3432 
Q 1894 3584 2278 3584 
Q 2916 3584 3314 3078 
Q 3713 2572 3713 1747 
Q 3713 922 3314 415 
Q 2916 -91 2278 -91 
Q 1894 -91 1617 61 
Q 1341 213 1159 525 
z
M 3116 1747 
Q 3116 2381 2855 2742 
Q 2594 3103 2138 3103 
Q 1681 3103 1420 2742 
Q 1159 2381 1159 1747 
Q 1159 1113 1420 752 
Q 1681 391 2138 391 
Q 2594 391 2855 752 
Q 3116 1113 3116 1747 
z
" transform="scale(0.015625)"/>
       <path id="DejaVuSans-74" d="M 1172 4494 
L 1172 3500 
L 2356 3500 
L 2356 3053 
L 1172 3053 
L 1172 1153 
Q 1172 725 1289 603 
Q 1406 481 1766 481 
L 2356 481 
L 2356 0 
L 1766 0 
Q 1100 0 847 248 
Q 594 497 594 1153 
L 594 3053 
L 172 3053 
L 172 3500 
L 594 3500 
L 594 4494 
L 1172 4494 
z
" transform="scale(0.015625)"/>
       <path id="DejaVuSans-69" d="M 603 3500 
L 1178 3500 
L 1178 0 
L 603 0 
L 603 3500 
z
M 603 4863 
L 1178 4863 
L 1178 4134 
L 603 4134 
L 603 4863 
z
" transform="scale(0.015625)"/>
       <path id="DejaVuSans-64" d="M 2906 2969 
L 2906 4863 
L 3481 4863 
L 3481 0 
L 2906 0 
L 2906 525 
Q 2725 213 2448 61 
Q 2172 -91 1784 -91 
Q 1150 -91 751 415 
Q 353 922 353 1747 
Q 353 2572 751 3078 
Q 1150 3584 1784 3584 
Q 2172 3584 2448 3432 
Q 2725 3281 2906 2969 
z
M 947 1747 
Q 947 1113 1208 752 
Q 1469 391 1925 391 
Q 2381 391 2643 752 
Q 2906 1113 2906 1747 
Q 2906 2381 2643 2742 
Q 2381 3103 1925 3103 
Q 1469 3103 1208 2742 
Q 947 2381 947 1747 
z
" transform="scale(0.015625)"/>
       <path id="DejaVuSans-73" d="M 2834 3397 
L 2834 2853 
Q 2591 2978 2328 3040 
Q 2066 3103 1784 3103 
Q 1356 3103 1142 2972 
Q 928 2841 928 2578 
Q 928 2378 1081 2264 
Q 1234 2150 1697 2047 
L 1894 2003 
Q 2506 1872 2764 1633 
Q 3022 1394 3022 966 
Q 3022 478 2636 193 
Q 2250 -91 1575 -91 
Q 1294 -91 989 -36 
Q 684 19 347 128 
L 347 722 
Q 666 556 975 473 
Q 1284 391 1588 391 
Q 1994 391 2212 530 
Q 2431 669 2431 922 
Q 2431 1156 2273 1281 
Q 2116 1406 1581 1522 
L 1381 1569 
Q 847 1681 609 1914 
Q 372 2147 372 2553 
Q 372 3047 722 3315 
Q 1072 3584 1716 3584 
Q 2034 3584 2315 3537 
Q 2597 3491 2834 3397 
z
" transform="scale(0.015625)"/>
       <path id="DejaVuSans-63" d="M 3122 3366 
L 3122 2828 
Q 2878 2963 2633 3030 
Q 2388 3097 2138 3097 
Q 1578 3097 1268 2742 
Q 959 2388 959 1747 
Q 959 1106 1268 751 
Q 1578 397 2138 397 
Q 2388 397 2633 464 
Q 2878 531 3122 666 
L 3122 134 
Q 2881 22 2623 -34 
Q 2366 -91 2075 -91 
Q 1284 -91 818 406 
Q 353 903 353 1747 
Q 353 2603 823 3093 
Q 1294 3584 2113 3584 
Q 2378 3584 2631 3529 
Q 2884 3475 3122 3366 
z
" transform="scale(0.015625)"/>
       <path id="DejaVuSans-67" d="M 2906 1791 
Q 2906 2416 2648 2759 
Q 2391 3103 1925 3103 
Q 1463 3103 1205 2759 
Q 947 2416 947 1791 
Q 947 1169 1205 825 
Q 1463 481 1925 481 
Q 2391 481 2648 825 
Q 2906 1169 2906 1791 
z
M 3481 434 
Q 3481 -459 3084 -895 
Q 2688 -1331 1869 -1331 
Q 1566 -1331 1297 -1286 
Q 1028 -1241 775 -1147 
L 775 -588 
Q 1028 -725 1275 -790 
Q 1522 -856 1778 -856 
Q 2344 -856 2625 -561 
Q 2906 -266 2906 331 
L 2906 616 
Q 2728 306 2450 153 
Q 2172 0 1784 0 
Q 1141 0 747 490 
Q 353 981 353 1791 
Q 353 2603 747 3093 
Q 1141 3584 1784 3584 
Q 2172 3584 2450 3431 
Q 2728 3278 2906 2969 
L 2906 3500 
L 3481 3500 
L 3481 434 
z
" transform="scale(0.015625)"/>
      </defs>
      <use xlink:href="#DejaVuSans-6e"/>
      <use xlink:href="#DejaVuSans-75" transform="translate(63.378906 0)"/>
      <use xlink:href="#DejaVuSans-6d" transform="translate(126.757812 0)"/>
      <use xlink:href="#DejaVuSans-62" transform="translate(224.169922 0)"/>
      <use xlink:href="#DejaVuSans-65" transform="translate(287.646484 0)"/>
      <use xlink:href="#DejaVuSans-72" transform="translate(349.169922 0)"/>
      <use xlink:href="#DejaVuSans-20" transform="translate(390.283203 0)"/>
      <use xlink:href="#DejaVuSans-6f" transform="translate(422.070312 0)"/>
      <use xlink:href="#DejaVuSans-66" transform="translate(483.251953 0)"/>
      <use xlink:href="#DejaVuSans-20" transform="translate(518.457031 0)"/>
      <use xlink:href="#DejaVuSans-70" transform="translate(550.244141 0)"/>
      <use xlink:href="#DejaVuSans-65" transform="translate(613.720703 0)"/>
      <use xlink:href="#DejaVuSans-70" transform="translate(675.244141 0)"/>
      <use xlink:href="#DejaVuSans-74" transform="translate(738.720703 0)"/>
      <use xlink:href="#DejaVuSans-69" transform="translate(777.929688 0)"/>
      <use xlink:href="#DejaVuSans-64" transform="translate(805.712891 0)"/>
      <use xlink:href="#DejaVuSans-65" transform="translate(869.189453 0)"/>
      <use xlink:href="#DejaVuSans-73" transform="translate(930.712891 0)"/>
      <use xlink:href="#DejaVuSans-20" transform="translate(982.8125 0)"/>
      <use xlink:href="#DejaVuSans-63" transform="translate(1014.599609 0)"/>
      <use xlink:href="#DejaVuSans-6f" transform="translate(1069.580078 0)"/>
      <use xlink:href="#DejaVuSans-6e" transform="translate(1130.761719 0)"/>
      <use xlink:href="#DejaVuSans-74" transform="translate(1194.140625 0)"/>
      <use xlink:href="#DejaVuSans-72" transform="translate(1233.349609 0)"/>
      <use xlink:href="#DejaVuSans-69" transform="translate(1274.462891 0)"/>
      <use xlink:href="#DejaVuSans-62" transform="translate(1302.246094 0)"/>
      <use xlink:href="#DejaVuSans-75" transform="translate(1365.722656 0)"/>
      <use xlink:href="#DejaVuSans-74" transform="translate(1429.101562 0)"/>
      <use xlink:href="#DejaVuSans-69" transform="translate(1468.310547 0)"/>
      <use xlink:href="#DejaVuSans-6e" transform="translate(1496.09375 0)"/>
      <use xlink:href="#DejaVuSans-67" transform="translate(1559.472656 0)"/>
      <use xlink:href="#DejaVuSans-20" transform="translate(1622.949219 0)"/>
      <use xlink:href="#DejaVuSans-74" transform="translate(1654.736328 0)"/>
      <use xlink:href="#DejaVuSans-6f" transform="translate(1693.945312 0)"/>
      <use xlink:href="#DejaVuSans-20" transform="translate(1755.126953 0)"/>
      <use xlink:href="#DejaVuSans-65" transform="translate(1786.914062 0)"/>
      <use xlink:href="#DejaVuSans-70" transform="translate(1848.4375 0)"/>
      <use xlink:href="#DejaVuSans-69" transform="translate(1911.914062 0)"/>
      <use xlink:href="#DejaVuSans-74" transform="translate(1939.697266 0)"/>
      <use xlink:href="#DejaVuSans-6f" transform="translate(1978.90625 0)"/>
      <use xlink:href="#DejaVuSans-70" transform="translate(2040.087891 0)"/>
      <use xlink:href="#DejaVuSans-65" transform="translate(2103.564453 0)"/>
     </g>
    </g>
   </g>
   <g id="matplotlib.axis_2">
    <g id="ytick_1">
     <g id="line2d_6">
      <defs>
       <path id="m4d21e4fa11" d="M 0 0 
L -3.5 0 
" style="stroke: #000000; stroke-width: 0.8"/>
      </defs>
      <g>
       <use xlink:href="#m4d21e4fa11" x="41.278365" y="298.186998" style="stroke: #000000; stroke-width: 0.8"/>
      </g>
     </g>
     <g id="text_7">
      <!-- $\mathdefault{10^{0}}$ -->
      <g transform="translate(16.678365 301.986216) scale(0.1 -0.1)">
       <defs>
        <path id="DejaVuSans-31" d="M 794 531 
L 1825 531 
L 1825 4091 
L 703 3866 
L 703 4441 
L 1819 4666 
L 2450 4666 
L 2450 531 
L 3481 531 
L 3481 0 
L 794 0 
L 794 531 
z
" transform="scale(0.015625)"/>
       </defs>
       <use xlink:href="#DejaVuSans-31" transform="translate(0 0.765625)"/>
       <use xlink:href="#DejaVuSans-30" transform="translate(63.623047 0.765625)"/>
       <use xlink:href="#DejaVuSans-30" transform="translate(128.203125 39.046875) scale(0.7)"/>
      </g>
     </g>
    </g>
    <g id="ytick_2">
     <g id="line2d_7">
      <g>
       <use xlink:href="#m4d21e4fa11" x="41.278365" y="196.454568" style="stroke: #000000; stroke-width: 0.8"/>
      </g>
     </g>
     <g id="text_8">
      <!-- $\mathdefault{10^{1}}$ -->
      <g transform="translate(16.678365 200.253786) scale(0.1 -0.1)">
       <use xlink:href="#DejaVuSans-31" transform="translate(0 0.684375)"/>
       <use xlink:href="#DejaVuSans-30" transform="translate(63.623047 0.684375)"/>
       <use xlink:href="#DejaVuSans-31" transform="translate(128.203125 38.965625) scale(0.7)"/>
      </g>
     </g>
    </g>
    <g id="ytick_3">
     <g id="line2d_8">
      <g>
       <use xlink:href="#m4d21e4fa11" x="41.278365" y="94.722137" style="stroke: #000000; stroke-width: 0.8"/>
      </g>
     </g>
     <g id="text_9">
      <!-- $\mathdefault{10^{2}}$ -->
      <g transform="translate(16.678365 98.521356) scale(0.1 -0.1)">
       <use xlink:href="#DejaVuSans-31" transform="translate(0 0.765625)"/>
       <use xlink:href="#DejaVuSans-30" transform="translate(63.623047 0.765625)"/>
       <use xlink:href="#DejaVuSans-32" transform="translate(128.203125 39.046875) scale(0.7)"/>
      </g>
     </g>
    </g>
    <g id="ytick_4">
     <g id="line2d_9">
      <defs>
       <path id="m4bff55de53" d="M 0 0 
L -2 0 
" style="stroke: #000000; stroke-width: 0.6"/>
      </defs>
      <g>
       <use xlink:href="#m4bff55de53" x="41.278365" y="308.045889" style="stroke: #000000; stroke-width: 0.6"/>
      </g>
     </g>
    </g>
    <g id="ytick_5">
     <g id="line2d_10">
      <g>
       <use xlink:href="#m4bff55de53" x="41.278365" y="302.842018" style="stroke: #000000; stroke-width: 0.6"/>
      </g>
     </g>
    </g>
    <g id="ytick_6">
     <g id="line2d_11">
      <g>
       <use xlink:href="#m4bff55de53" x="41.278365" y="267.562485" style="stroke: #000000; stroke-width: 0.6"/>
      </g>
     </g>
    </g>
    <g id="ytick_7">
     <g id="line2d_12">
      <g>
       <use xlink:href="#m4bff55de53" x="41.278365" y="249.648293" style="stroke: #000000; stroke-width: 0.6"/>
      </g>
     </g>
    </g>
    <g id="ytick_8">
     <g id="line2d_13">
      <g>
       <use xlink:href="#m4bff55de53" x="41.278365" y="236.937972" style="stroke: #000000; stroke-width: 0.6"/>
      </g>
     </g>
    </g>
    <g id="ytick_9">
     <g id="line2d_14">
      <g>
       <use xlink:href="#m4bff55de53" x="41.278365" y="227.079081" style="stroke: #000000; stroke-width: 0.6"/>
      </g>
     </g>
    </g>
    <g id="ytick_10">
     <g id="line2d_15">
      <g>
       <use xlink:href="#m4bff55de53" x="41.278365" y="219.02378" style="stroke: #000000; stroke-width: 0.6"/>
      </g>
     </g>
    </g>
    <g id="ytick_11">
     <g id="line2d_16">
      <g>
       <use xlink:href="#m4bff55de53" x="41.278365" y="212.21312" style="stroke: #000000; stroke-width: 0.6"/>
      </g>
     </g>
    </g>
    <g id="ytick_12">
     <g id="line2d_17">
      <g>
       <use xlink:href="#m4bff55de53" x="41.278365" y="206.313459" style="stroke: #000000; stroke-width: 0.6"/>
      </g>
     </g>
    </g>
    <g id="ytick_13">
     <g id="line2d_18">
      <g>
       <use xlink:href="#m4bff55de53" x="41.278365" y="201.109588" style="stroke: #000000; stroke-width: 0.6"/>
      </g>
     </g>
    </g>
    <g id="ytick_14">
     <g id="line2d_19">
      <g>
       <use xlink:href="#m4bff55de53" x="41.278365" y="165.830055" style="stroke: #000000; stroke-width: 0.6"/>
      </g>
     </g>
    </g>
    <g id="ytick_15">
     <g id="line2d_20">
      <g>
       <use xlink:href="#m4bff55de53" x="41.278365" y="147.915863" style="stroke: #000000; stroke-width: 0.6"/>
      </g>
     </g>
    </g>
    <g id="ytick_16">
     <g id="line2d_21">
      <g>
       <use xlink:href="#m4bff55de53" x="41.278365" y="135.205541" style="stroke: #000000; stroke-width: 0.6"/>
      </g>
     </g>
    </g>
    <g id="ytick_17">
     <g id="line2d_22">
      <g>
       <use xlink:href="#m4bff55de53" x="41.278365" y="125.34665" style="stroke: #000000; stroke-width: 0.6"/>
      </g>
     </g>
    </g>
    <g id="ytick_18">
     <g id="line2d_23">
      <g>
       <use xlink:href="#m4bff55de53" x="41.278365" y="117.29135" style="stroke: #000000; stroke-width: 0.6"/>
      </g>
     </g>
    </g>
    <g id="ytick_19">
     <g id="line2d_24">
      <g>
       <use xlink:href="#m4bff55de53" x="41.278365" y="110.48069" style="stroke: #000000; stroke-width: 0.6"/>
      </g>
     </g>
    </g>
    <g id="ytick_20">
     <g id="line2d_25">
      <g>
       <use xlink:href="#m4bff55de53" x="41.278365" y="104.581028" style="stroke: #000000; stroke-width: 0.6"/>
      </g>
     </g>
    </g>
    <g id="ytick_21">
     <g id="line2d_26">
      <g>
       <use xlink:href="#m4bff55de53" x="41.278365" y="99.377158" style="stroke: #000000; stroke-width: 0.6"/>
      </g>
     </g>
    </g>
    <g id="ytick_22">
     <g id="line2d_27">
      <g>
       <use xlink:href="#m4bff55de53" x="41.278365" y="64.097624" style="stroke: #000000; stroke-width: 0.6"/>
      </g>
     </g>
    </g>
    <g id="ytick_23">
     <g id="line2d_28">
      <g>
       <use xlink:href="#m4bff55de53" x="41.278365" y="46.183433" style="stroke: #000000; stroke-width: 0.6"/>
      </g>
     </g>
    </g>
    <g id="ytick_24">
     <g id="line2d_29">
      <g>
       <use xlink:href="#m4bff55de53" x="41.278365" y="33.473111" style="stroke: #000000; stroke-width: 0.6"/>
      </g>
     </g>
    </g>
    <g id="ytick_25">
     <g id="line2d_30">
      <g>
       <use xlink:href="#m4bff55de53" x="41.278365" y="23.61422" style="stroke: #000000; stroke-width: 0.6"/>
      </g>
     </g>
    </g>
    <g id="ytick_26">
     <g id="line2d_31">
      <g>
       <use xlink:href="#m4bff55de53" x="41.278365" y="15.55892" style="stroke: #000000; stroke-width: 0.6"/>
      </g>
     </g>
    </g>
    <g id="ytick_27">
     <g id="line2d_32">
      <g>
       <use xlink:href="#m4bff55de53" x="41.278365" y="8.74826" style="stroke: #000000; stroke-width: 0.6"/>
      </g>
     </g>
    </g>
    <g id="text_10">
     <!-- count -->
     <g transform="translate(10.598677 171.728125) rotate(-90) scale(0.1 -0.1)">
      <use xlink:href="#DejaVuSans-63"/>
      <use xlink:href="#DejaVuSans-6f" transform="translate(54.980469 0)"/>
      <use xlink:href="#DejaVuSans-75" transform="translate(116.162109 0)"/>
      <use xlink:href="#DejaVuSans-6e" transform="translate(179.541016 0)"/>
      <use xlink:href="#DejaVuSans-74" transform="translate(242.919922 0)"/>
     </g>
    </g>
   </g>
   <g id="patch_94">
    <path d="M 41.278365 312.24351 
L 41.278365 3.00024 
" style="fill: none; stroke: #000000; stroke-width: 0.8; stroke-linejoin: miter; stroke-linecap: square"/>
   </g>
   <g id="patch_95">
    <path d="M 457.79976 312.24351 
L 457.79976 3.00024 
" style="fill: none; stroke: #000000; stroke-width: 0.8; stroke-linejoin: miter; stroke-linecap: square"/>
   </g>
   <g id="patch_96">
    <path d="M 41.278365 312.24351 
L 457.79976 312.24351 
" style="fill: none; stroke: #000000; stroke-width: 0.8; stroke-linejoin: miter; stroke-linecap: square"/>
   </g>
   <g id="patch_97">
    <path d="M 41.278365 3.00024 
L 457.79976 3.00024 
" style="fill: none; stroke: #000000; stroke-width: 0.8; stroke-linejoin: miter; stroke-linecap: square"/>
   </g>
  </g>
 </g>
 <defs>
  <clipPath id="p19071ebee3">
   <rect x="41.278365" y="3.00024" width="416.521395" height="309.24327"/>
  </clipPath>
 </defs>
</svg>
