<?xml version="1.0" encoding="utf-8" standalone="no"?>
<!DOCTYPE svg PUBLIC "-//W3C//DTD SVG 1.1//EN"
  "http://www.w3.org/Graphics/SVG/1.1/DTD/svg11.dtd">
<svg xmlns:xlink="http://www.w3.org/1999/xlink" width="460.8pt" height="345.6pt" viewBox="0 0 460.8 345.6" xmlns="http://www.w3.org/2000/svg" version="1.1">
 <metadata>
  <rdf:RDF xmlns:dc="http://purl.org/dc/elements/1.1/" xmlns:cc="http://creativecommons.org/ns#" xmlns:rdf="http://www.w3.org/1999/02/22-rdf-syntax-ns#">
   <cc:Work>
    <dc:type rdf:resource="http://purl.org/dc/dcmitype/StillImage"/>
    <dc:date>2025-05-26T10:44:51.491815</dc:date>
    <dc:format>image/svg+xml</dc:format>
    <dc:creator>
     <cc:Agent>
      <dc:title>Matplotlib v3.10.1, https://matplotlib.org/</dc:title>
     </cc:Agent>
    </dc:creator>
   </cc:Work>
  </rdf:RDF>
 </metadata>
 <defs>
  <style type="text/css">*{stroke-linejoin: round; stroke-linecap: butt}</style>
 </defs>
 <g id="figure_1">
  <g id="patch_1">
   <path d="M 0 345.6 
L 460.8 345.6 
L 460.8 0 
L 0 0 
z
" style="fill: #ffffff"/>
  </g>
  <g id="axes_1">
   <g id="patch_2">
    <path d="M 49.128365 312.24351 
L 457.79976 312.24351 
L 457.79976 3.00024 
L 49.128365 3.00024 
z
" style="fill: #ffffff"/>
   </g>
   <g id="patch_3">
    <path d="M 67.704337 312.24351 
L 76.147961 312.24351 
L 76.147961 312.24351 
L 67.704337 312.24351 
z
" clip-path="url(#p3508be2e55)" style="fill: #808080; opacity: 0.6"/>
   </g>
   <g id="patch_4">
    <path d="M 76.147961 312.24351 
L 84.591585 312.24351 
L 84.591585 312.24351 
L 76.147961 312.24351 
z
" clip-path="url(#p3508be2e55)" style="fill: #808080; opacity: 0.6"/>
   </g>
   <g id="patch_5">
    <path d="M 84.591585 312.24351 
L 93.035209 312.24351 
L 93.035209 312.24351 
L 84.591585 312.24351 
z
" clip-path="url(#p3508be2e55)" style="fill: #808080; opacity: 0.6"/>
   </g>
   <g id="patch_6">
    <path d="M 93.035209 312.24351 
L 101.478833 312.24351 
L 101.478833 248.880117 
L 93.035209 248.880117 
z
" clip-path="url(#p3508be2e55)" style="fill: #808080; opacity: 0.6"/>
   </g>
   <g id="patch_7">
    <path d="M 101.478833 312.24351 
L 109.922457 312.24351 
L 109.922457 233.379202 
L 101.478833 233.379202 
z
" clip-path="url(#p3508be2e55)" style="fill: #808080; opacity: 0.6"/>
   </g>
   <g id="patch_8">
    <path d="M 109.922457 312.24351 
L 118.366081 312.24351 
L 118.366081 231.47558 
L 109.922457 231.47558 
z
" clip-path="url(#p3508be2e55)" style="fill: #808080; opacity: 0.6"/>
   </g>
   <g id="patch_9">
    <path d="M 118.366081 312.24351 
L 126.809705 312.24351 
L 126.809705 226.8525 
L 118.366081 226.8525 
z
" clip-path="url(#p3508be2e55)" style="fill: #808080; opacity: 0.6"/>
   </g>
   <g id="patch_10">
    <path d="M 126.809705 312.24351 
L 135.253328 312.24351 
L 135.253328 174.910835 
L 126.809705 174.910835 
z
" clip-path="url(#p3508be2e55)" style="fill: #808080; opacity: 0.6"/>
   </g>
   <g id="patch_11">
    <path d="M 135.253328 312.24351 
L 143.696952 312.24351 
L 143.696952 75.378639 
L 135.253328 75.378639 
z
" clip-path="url(#p3508be2e55)" style="fill: #808080; opacity: 0.6"/>
   </g>
   <g id="patch_12">
    <path d="M 143.696952 312.24351 
L 152.140576 312.24351 
L 152.140576 17.72611 
L 143.696952 17.72611 
z
" clip-path="url(#p3508be2e55)" style="fill: #808080; opacity: 0.6"/>
   </g>
   <g id="patch_13">
    <path d="M 152.140576 312.24351 
L 160.5842 312.24351 
L 160.5842 21.261407 
L 152.140576 21.261407 
z
" clip-path="url(#p3508be2e55)" style="fill: #808080; opacity: 0.6"/>
   </g>
   <g id="patch_14">
    <path d="M 160.5842 312.24351 
L 169.027824 312.24351 
L 169.027824 100.669607 
L 160.5842 100.669607 
z
" clip-path="url(#p3508be2e55)" style="fill: #808080; opacity: 0.6"/>
   </g>
   <g id="patch_15">
    <path d="M 169.027824 312.24351 
L 177.471448 312.24351 
L 177.471448 170.831647 
L 169.027824 170.831647 
z
" clip-path="url(#p3508be2e55)" style="fill: #808080; opacity: 0.6"/>
   </g>
   <g id="patch_16">
    <path d="M 177.471448 312.24351 
L 185.915072 312.24351 
L 185.915072 212.711314 
L 177.471448 212.711314 
z
" clip-path="url(#p3508be2e55)" style="fill: #808080; opacity: 0.6"/>
   </g>
   <g id="patch_17">
    <path d="M 185.915072 312.24351 
L 194.358695 312.24351 
L 194.358695 233.923093 
L 185.915072 233.923093 
z
" clip-path="url(#p3508be2e55)" style="fill: #808080; opacity: 0.6"/>
   </g>
   <g id="patch_18">
    <path d="M 194.358695 312.24351 
L 202.802319 312.24351 
L 202.802319 259.757953 
L 194.358695 259.757953 
z
" clip-path="url(#p3508be2e55)" style="fill: #808080; opacity: 0.6"/>
   </g>
   <g id="patch_19">
    <path d="M 202.802319 312.24351 
L 211.245943 312.24351 
L 211.245943 263.021304 
L 202.802319 263.021304 
z
" clip-path="url(#p3508be2e55)" style="fill: #808080; opacity: 0.6"/>
   </g>
   <g id="patch_20">
    <path d="M 211.245943 312.24351 
L 219.689567 312.24351 
L 219.689567 275.802761 
L 211.245943 275.802761 
z
" clip-path="url(#p3508be2e55)" style="fill: #808080; opacity: 0.6"/>
   </g>
   <g id="patch_21">
    <path d="M 219.689567 312.24351 
L 228.133191 312.24351 
L 228.133191 285.864759 
L 219.689567 285.864759 
z
" clip-path="url(#p3508be2e55)" style="fill: #808080; opacity: 0.6"/>
   </g>
   <g id="patch_22">
    <path d="M 228.133191 312.24351 
L 236.576815 312.24351 
L 236.576815 285.320867 
L 228.133191 285.320867 
z
" clip-path="url(#p3508be2e55)" style="fill: #808080; opacity: 0.6"/>
   </g>
   <g id="patch_23">
    <path d="M 236.576815 312.24351 
L 245.020439 312.24351 
L 245.020439 287.496434 
L 236.576815 287.496434 
z
" clip-path="url(#p3508be2e55)" style="fill: #808080; opacity: 0.6"/>
   </g>
   <g id="patch_24">
    <path d="M 245.020439 312.24351 
L 253.464062 312.24351 
L 253.464062 291.847568 
L 245.020439 291.847568 
z
" clip-path="url(#p3508be2e55)" style="fill: #808080; opacity: 0.6"/>
   </g>
   <g id="patch_25">
    <path d="M 253.464062 312.24351 
L 261.907686 312.24351 
L 261.907686 298.102324 
L 253.464062 298.102324 
z
" clip-path="url(#p3508be2e55)" style="fill: #808080; opacity: 0.6"/>
   </g>
   <g id="patch_26">
    <path d="M 261.907686 312.24351 
L 270.35131 312.24351 
L 270.35131 299.462053 
L 261.907686 299.462053 
z
" clip-path="url(#p3508be2e55)" style="fill: #808080; opacity: 0.6"/>
   </g>
   <g id="patch_27">
    <path d="M 270.35131 312.24351 
L 278.794934 312.24351 
L 278.794934 302.181512 
L 270.35131 302.181512 
z
" clip-path="url(#p3508be2e55)" style="fill: #808080; opacity: 0.6"/>
   </g>
   <g id="patch_28">
    <path d="M 278.794934 312.24351 
L 287.238558 312.24351 
L 287.238558 305.716809 
L 278.794934 305.716809 
z
" clip-path="url(#p3508be2e55)" style="fill: #808080; opacity: 0.6"/>
   </g>
   <g id="patch_29">
    <path d="M 287.238558 312.24351 
L 295.682182 312.24351 
L 295.682182 312.24351 
L 287.238558 312.24351 
z
" clip-path="url(#p3508be2e55)" style="fill: #808080; opacity: 0.6"/>
   </g>
   <g id="patch_30">
    <path d="M 295.682182 312.24351 
L 304.125806 312.24351 
L 304.125806 312.24351 
L 295.682182 312.24351 
z
" clip-path="url(#p3508be2e55)" style="fill: #808080; opacity: 0.6"/>
   </g>
   <g id="patch_31">
    <path d="M 304.125806 312.24351 
L 312.56943 312.24351 
L 312.56943 312.24351 
L 304.125806 312.24351 
z
" clip-path="url(#p3508be2e55)" style="fill: #808080; opacity: 0.6"/>
   </g>
   <g id="patch_32">
    <path d="M 312.56943 312.24351 
L 321.013053 312.24351 
L 321.013053 312.24351 
L 312.56943 312.24351 
z
" clip-path="url(#p3508be2e55)" style="fill: #808080; opacity: 0.6"/>
   </g>
   <g id="patch_33">
    <path d="M 321.013053 312.24351 
L 329.456677 312.24351 
L 329.456677 312.24351 
L 321.013053 312.24351 
z
" clip-path="url(#p3508be2e55)" style="fill: #808080; opacity: 0.6"/>
   </g>
   <g id="patch_34">
    <path d="M 329.456677 312.24351 
L 337.900301 312.24351 
L 337.900301 312.24351 
L 329.456677 312.24351 
z
" clip-path="url(#p3508be2e55)" style="fill: #808080; opacity: 0.6"/>
   </g>
   <g id="patch_35">
    <path d="M 337.900301 312.24351 
L 346.343925 312.24351 
L 346.343925 312.24351 
L 337.900301 312.24351 
z
" clip-path="url(#p3508be2e55)" style="fill: #808080; opacity: 0.6"/>
   </g>
   <g id="patch_36">
    <path d="M 346.343925 312.24351 
L 354.787549 312.24351 
L 354.787549 312.24351 
L 346.343925 312.24351 
z
" clip-path="url(#p3508be2e55)" style="fill: #808080; opacity: 0.6"/>
   </g>
   <g id="patch_37">
    <path d="M 354.787549 312.24351 
L 363.231173 312.24351 
L 363.231173 312.24351 
L 354.787549 312.24351 
z
" clip-path="url(#p3508be2e55)" style="fill: #808080; opacity: 0.6"/>
   </g>
   <g id="patch_38">
    <path d="M 363.231173 312.24351 
L 371.674797 312.24351 
L 371.674797 312.24351 
L 363.231173 312.24351 
z
" clip-path="url(#p3508be2e55)" style="fill: #808080; opacity: 0.6"/>
   </g>
   <g id="patch_39">
    <path d="M 371.674797 312.24351 
L 380.11842 312.24351 
L 380.11842 312.24351 
L 371.674797 312.24351 
z
" clip-path="url(#p3508be2e55)" style="fill: #808080; opacity: 0.6"/>
   </g>
   <g id="patch_40">
    <path d="M 380.11842 312.24351 
L 388.562044 312.24351 
L 388.562044 312.24351 
L 380.11842 312.24351 
z
" clip-path="url(#p3508be2e55)" style="fill: #808080; opacity: 0.6"/>
   </g>
   <g id="patch_41">
    <path d="M 388.562044 312.24351 
L 397.005668 312.24351 
L 397.005668 312.24351 
L 388.562044 312.24351 
z
" clip-path="url(#p3508be2e55)" style="fill: #808080; opacity: 0.6"/>
   </g>
   <g id="patch_42">
    <path d="M 397.005668 312.24351 
L 405.449292 312.24351 
L 405.449292 312.24351 
L 397.005668 312.24351 
z
" clip-path="url(#p3508be2e55)" style="fill: #808080; opacity: 0.6"/>
   </g>
   <g id="patch_43">
    <path d="M 405.449292 312.24351 
L 413.892916 312.24351 
L 413.892916 312.24351 
L 405.449292 312.24351 
z
" clip-path="url(#p3508be2e55)" style="fill: #808080; opacity: 0.6"/>
   </g>
   <g id="patch_44">
    <path d="M 413.892916 312.24351 
L 422.33654 312.24351 
L 422.33654 312.24351 
L 413.892916 312.24351 
z
" clip-path="url(#p3508be2e55)" style="fill: #808080; opacity: 0.6"/>
   </g>
   <g id="patch_45">
    <path d="M 422.33654 312.24351 
L 430.780164 312.24351 
L 430.780164 312.24351 
L 422.33654 312.24351 
z
" clip-path="url(#p3508be2e55)" style="fill: #808080; opacity: 0.6"/>
   </g>
   <g id="patch_46">
    <path d="M 430.780164 312.24351 
L 439.223787 312.24351 
L 439.223787 312.24351 
L 430.780164 312.24351 
z
" clip-path="url(#p3508be2e55)" style="fill: #808080; opacity: 0.6"/>
   </g>
   <g id="patch_47">
    <path d="M 67.704337 312.24351 
L 76.147961 312.24351 
L 76.147961 312.24351 
L 67.704337 312.24351 
z
" clip-path="url(#p3508be2e55)" style="fill: #ff0000; opacity: 0.6"/>
   </g>
   <g id="patch_48">
    <path d="M 76.147961 312.24351 
L 84.591585 312.24351 
L 84.591585 312.24351 
L 76.147961 312.24351 
z
" clip-path="url(#p3508be2e55)" style="fill: #ff0000; opacity: 0.6"/>
   </g>
   <g id="patch_49">
    <path d="M 84.591585 312.24351 
L 93.035209 312.24351 
L 93.035209 312.24351 
L 84.591585 312.24351 
z
" clip-path="url(#p3508be2e55)" style="fill: #ff0000; opacity: 0.6"/>
   </g>
   <g id="patch_50">
    <path d="M 93.035209 312.24351 
L 101.478833 312.24351 
L 101.478833 304.629025 
L 93.035209 304.629025 
z
" clip-path="url(#p3508be2e55)" style="fill: #ff0000; opacity: 0.6"/>
   </g>
   <g id="patch_51">
    <path d="M 101.478833 312.24351 
L 109.922457 312.24351 
L 109.922457 300.821783 
L 101.478833 300.821783 
z
" clip-path="url(#p3508be2e55)" style="fill: #ff0000; opacity: 0.6"/>
   </g>
   <g id="patch_52">
    <path d="M 109.922457 312.24351 
L 118.366081 312.24351 
L 118.366081 301.093728 
L 109.922457 301.093728 
z
" clip-path="url(#p3508be2e55)" style="fill: #ff0000; opacity: 0.6"/>
   </g>
   <g id="patch_53">
    <path d="M 118.366081 312.24351 
L 126.809705 312.24351 
L 126.809705 302.725404 
L 118.366081 302.725404 
z
" clip-path="url(#p3508be2e55)" style="fill: #ff0000; opacity: 0.6"/>
   </g>
   <g id="patch_54">
    <path d="M 126.809705 312.24351 
L 135.253328 312.24351 
L 135.253328 300.277891 
L 126.809705 300.277891 
z
" clip-path="url(#p3508be2e55)" style="fill: #ff0000; opacity: 0.6"/>
   </g>
   <g id="patch_55">
    <path d="M 135.253328 312.24351 
L 143.696952 312.24351 
L 143.696952 288.040326 
L 135.253328 288.040326 
z
" clip-path="url(#p3508be2e55)" style="fill: #ff0000; opacity: 0.6"/>
   </g>
   <g id="patch_56">
    <path d="M 143.696952 312.24351 
L 152.140576 312.24351 
L 152.140576 271.723572 
L 143.696952 271.723572 
z
" clip-path="url(#p3508be2e55)" style="fill: #ff0000; opacity: 0.6"/>
   </g>
   <g id="patch_57">
    <path d="M 152.140576 312.24351 
L 160.5842 312.24351 
L 160.5842 268.732167 
L 152.140576 268.732167 
z
" clip-path="url(#p3508be2e55)" style="fill: #ff0000; opacity: 0.6"/>
   </g>
   <g id="patch_58">
    <path d="M 160.5842 312.24351 
L 169.027824 312.24351 
L 169.027824 271.995518 
L 160.5842 271.995518 
z
" clip-path="url(#p3508be2e55)" style="fill: #ff0000; opacity: 0.6"/>
   </g>
   <g id="patch_59">
    <path d="M 169.027824 312.24351 
L 177.471448 312.24351 
L 177.471448 286.680596 
L 169.027824 286.680596 
z
" clip-path="url(#p3508be2e55)" style="fill: #ff0000; opacity: 0.6"/>
   </g>
   <g id="patch_60">
    <path d="M 177.471448 312.24351 
L 185.915072 312.24351 
L 185.915072 295.382865 
L 177.471448 295.382865 
z
" clip-path="url(#p3508be2e55)" style="fill: #ff0000; opacity: 0.6"/>
   </g>
   <g id="patch_61">
    <path d="M 185.915072 312.24351 
L 194.358695 312.24351 
L 194.358695 298.646215 
L 185.915072 298.646215 
z
" clip-path="url(#p3508be2e55)" style="fill: #ff0000; opacity: 0.6"/>
   </g>
   <g id="patch_62">
    <path d="M 194.358695 312.24351 
L 202.802319 312.24351 
L 202.802319 299.733999 
L 194.358695 299.733999 
z
" clip-path="url(#p3508be2e55)" style="fill: #ff0000; opacity: 0.6"/>
   </g>
   <g id="patch_63">
    <path d="M 202.802319 312.24351 
L 211.245943 312.24351 
L 211.245943 302.181512 
L 202.802319 302.181512 
z
" clip-path="url(#p3508be2e55)" style="fill: #ff0000; opacity: 0.6"/>
   </g>
   <g id="patch_64">
    <path d="M 211.245943 312.24351 
L 219.689567 312.24351 
L 219.689567 306.2607 
L 211.245943 306.2607 
z
" clip-path="url(#p3508be2e55)" style="fill: #ff0000; opacity: 0.6"/>
   </g>
   <g id="patch_65">
    <path d="M 219.689567 312.24351 
L 228.133191 312.24351 
L 228.133191 305.172917 
L 219.689567 305.172917 
z
" clip-path="url(#p3508be2e55)" style="fill: #ff0000; opacity: 0.6"/>
   </g>
   <g id="patch_66">
    <path d="M 228.133191 312.24351 
L 236.576815 312.24351 
L 236.576815 304.900971 
L 228.133191 304.900971 
z
" clip-path="url(#p3508be2e55)" style="fill: #ff0000; opacity: 0.6"/>
   </g>
   <g id="patch_67">
    <path d="M 236.576815 312.24351 
L 245.020439 312.24351 
L 245.020439 306.532646 
L 236.576815 306.532646 
z
" clip-path="url(#p3508be2e55)" style="fill: #ff0000; opacity: 0.6"/>
   </g>
   <g id="patch_68">
    <path d="M 245.020439 312.24351 
L 253.464062 312.24351 
L 253.464062 305.716809 
L 245.020439 305.716809 
z
" clip-path="url(#p3508be2e55)" style="fill: #ff0000; opacity: 0.6"/>
   </g>
   <g id="patch_69">
    <path d="M 253.464062 312.24351 
L 261.907686 312.24351 
L 261.907686 308.164322 
L 253.464062 308.164322 
z
" clip-path="url(#p3508be2e55)" style="fill: #ff0000; opacity: 0.6"/>
   </g>
   <g id="patch_70">
    <path d="M 261.907686 312.24351 
L 270.35131 312.24351 
L 270.35131 308.164322 
L 261.907686 308.164322 
z
" clip-path="url(#p3508be2e55)" style="fill: #ff0000; opacity: 0.6"/>
   </g>
   <g id="patch_71">
    <path d="M 270.35131 312.24351 
L 278.794934 312.24351 
L 278.794934 307.076538 
L 270.35131 307.076538 
z
" clip-path="url(#p3508be2e55)" style="fill: #ff0000; opacity: 0.6"/>
   </g>
   <g id="patch_72">
    <path d="M 278.794934 312.24351 
L 287.238558 312.24351 
L 287.238558 308.436268 
L 278.794934 308.436268 
z
" clip-path="url(#p3508be2e55)" style="fill: #ff0000; opacity: 0.6"/>
   </g>
   <g id="patch_73">
    <path d="M 287.238558 312.24351 
L 295.682182 312.24351 
L 295.682182 310.883781 
L 287.238558 310.883781 
z
" clip-path="url(#p3508be2e55)" style="fill: #ff0000; opacity: 0.6"/>
   </g>
   <g id="patch_74">
    <path d="M 295.682182 312.24351 
L 304.125806 312.24351 
L 304.125806 311.427672 
L 295.682182 311.427672 
z
" clip-path="url(#p3508be2e55)" style="fill: #ff0000; opacity: 0.6"/>
   </g>
   <g id="patch_75">
    <path d="M 304.125806 312.24351 
L 312.56943 312.24351 
L 312.56943 311.699618 
L 304.125806 311.699618 
z
" clip-path="url(#p3508be2e55)" style="fill: #ff0000; opacity: 0.6"/>
   </g>
   <g id="patch_76">
    <path d="M 312.56943 312.24351 
L 321.013053 312.24351 
L 321.013053 311.699618 
L 312.56943 311.699618 
z
" clip-path="url(#p3508be2e55)" style="fill: #ff0000; opacity: 0.6"/>
   </g>
   <g id="patch_77">
    <path d="M 321.013053 312.24351 
L 329.456677 312.24351 
L 329.456677 311.155726 
L 321.013053 311.155726 
z
" clip-path="url(#p3508be2e55)" style="fill: #ff0000; opacity: 0.6"/>
   </g>
   <g id="patch_78">
    <path d="M 329.456677 312.24351 
L 337.900301 312.24351 
L 337.900301 311.427672 
L 329.456677 311.427672 
z
" clip-path="url(#p3508be2e55)" style="fill: #ff0000; opacity: 0.6"/>
   </g>
   <g id="patch_79">
    <path d="M 337.900301 312.24351 
L 346.343925 312.24351 
L 346.343925 312.24351 
L 337.900301 312.24351 
z
" clip-path="url(#p3508be2e55)" style="fill: #ff0000; opacity: 0.6"/>
   </g>
   <g id="patch_80">
    <path d="M 346.343925 312.24351 
L 354.787549 312.24351 
L 354.787549 311.971564 
L 346.343925 311.971564 
z
" clip-path="url(#p3508be2e55)" style="fill: #ff0000; opacity: 0.6"/>
   </g>
   <g id="patch_81">
    <path d="M 354.787549 312.24351 
L 363.231173 312.24351 
L 363.231173 312.24351 
L 354.787549 312.24351 
z
" clip-path="url(#p3508be2e55)" style="fill: #ff0000; opacity: 0.6"/>
   </g>
   <g id="patch_82">
    <path d="M 363.231173 312.24351 
L 371.674797 312.24351 
L 371.674797 312.24351 
L 363.231173 312.24351 
z
" clip-path="url(#p3508be2e55)" style="fill: #ff0000; opacity: 0.6"/>
   </g>
   <g id="patch_83">
    <path d="M 371.674797 312.24351 
L 380.11842 312.24351 
L 380.11842 311.699618 
L 371.674797 311.699618 
z
" clip-path="url(#p3508be2e55)" style="fill: #ff0000; opacity: 0.6"/>
   </g>
   <g id="patch_84">
    <path d="M 380.11842 312.24351 
L 388.562044 312.24351 
L 388.562044 311.971564 
L 380.11842 311.971564 
z
" clip-path="url(#p3508be2e55)" style="fill: #ff0000; opacity: 0.6"/>
   </g>
   <g id="patch_85">
    <path d="M 388.562044 312.24351 
L 397.005668 312.24351 
L 397.005668 312.24351 
L 388.562044 312.24351 
z
" clip-path="url(#p3508be2e55)" style="fill: #ff0000; opacity: 0.6"/>
   </g>
   <g id="patch_86">
    <path d="M 397.005668 312.24351 
L 405.449292 312.24351 
L 405.449292 311.971564 
L 397.005668 311.971564 
z
" clip-path="url(#p3508be2e55)" style="fill: #ff0000; opacity: 0.6"/>
   </g>
   <g id="patch_87">
    <path d="M 405.449292 312.24351 
L 413.892916 312.24351 
L 413.892916 311.971564 
L 405.449292 311.971564 
z
" clip-path="url(#p3508be2e55)" style="fill: #ff0000; opacity: 0.6"/>
   </g>
   <g id="patch_88">
    <path d="M 413.892916 312.24351 
L 422.33654 312.24351 
L 422.33654 312.24351 
L 413.892916 312.24351 
z
" clip-path="url(#p3508be2e55)" style="fill: #ff0000; opacity: 0.6"/>
   </g>
   <g id="patch_89">
    <path d="M 422.33654 312.24351 
L 430.780164 312.24351 
L 430.780164 312.24351 
L 422.33654 312.24351 
z
" clip-path="url(#p3508be2e55)" style="fill: #ff0000; opacity: 0.6"/>
   </g>
   <g id="patch_90">
    <path d="M 430.780164 312.24351 
L 439.223787 312.24351 
L 439.223787 311.427672 
L 430.780164 311.427672 
z
" clip-path="url(#p3508be2e55)" style="fill: #ff0000; opacity: 0.6"/>
   </g>
   <g id="matplotlib.axis_1">
    <g id="xtick_1">
     <g id="line2d_1">
      <defs>
       <path id="m1a342b93e1" d="M 0 0 
L 0 3.5 
" style="stroke: #000000; stroke-width: 0.8"/>
      </defs>
      <g>
       <use xlink:href="#m1a342b93e1" x="109.922457" y="312.24351" style="stroke: #000000; stroke-width: 0.8"/>
      </g>
     </g>
     <g id="text_1">
      <!-- 10 -->
      <g transform="translate(103.559957 326.841947) scale(0.1 -0.1)">
       <defs>
        <path id="DejaVuSans-31" d="M 794 531 
L 1825 531 
L 1825 4091 
L 703 3866 
L 703 4441 
L 1819 4666 
L 2450 4666 
L 2450 531 
L 3481 531 
L 3481 0 
L 794 0 
L 794 531 
z
" transform="scale(0.015625)"/>
        <path id="DejaVuSans-30" d="M 2034 4250 
Q 1547 4250 1301 3770 
Q 1056 3291 1056 2328 
Q 1056 1369 1301 889 
Q 1547 409 2034 409 
Q 2525 409 2770 889 
Q 3016 1369 3016 2328 
Q 3016 3291 2770 3770 
Q 2525 4250 2034 4250 
z
M 2034 4750 
Q 2819 4750 3233 4129 
Q 3647 3509 3647 2328 
Q 3647 1150 3233 529 
Q 2819 -91 2034 -91 
Q 1250 -91 836 529 
Q 422 1150 422 2328 
Q 422 3509 836 4129 
Q 1250 4750 2034 4750 
z
" transform="scale(0.015625)"/>
       </defs>
       <use xlink:href="#DejaVuSans-31"/>
       <use xlink:href="#DejaVuSans-30" transform="translate(63.623047 0)"/>
      </g>
     </g>
    </g>
    <g id="xtick_2">
     <g id="line2d_2">
      <g>
       <use xlink:href="#m1a342b93e1" x="194.358695" y="312.24351" style="stroke: #000000; stroke-width: 0.8"/>
      </g>
     </g>
     <g id="text_2">
      <!-- 20 -->
      <g transform="translate(187.996195 326.841947) scale(0.1 -0.1)">
       <defs>
        <path id="DejaVuSans-32" d="M 1228 531 
L 3431 531 
L 3431 0 
L 469 0 
L 469 531 
Q 828 903 1448 1529 
Q 2069 2156 2228 2338 
Q 2531 2678 2651 2914 
Q 2772 3150 2772 3378 
Q 2772 3750 2511 3984 
Q 2250 4219 1831 4219 
Q 1534 4219 1204 4116 
Q 875 4013 500 3803 
L 500 4441 
Q 881 4594 1212 4672 
Q 1544 4750 1819 4750 
Q 2544 4750 2975 4387 
Q 3406 4025 3406 3419 
Q 3406 3131 3298 2873 
Q 3191 2616 2906 2266 
Q 2828 2175 2409 1742 
Q 1991 1309 1228 531 
z
" transform="scale(0.015625)"/>
       </defs>
       <use xlink:href="#DejaVuSans-32"/>
       <use xlink:href="#DejaVuSans-30" transform="translate(63.623047 0)"/>
      </g>
     </g>
    </g>
    <g id="xtick_3">
     <g id="line2d_3">
      <g>
       <use xlink:href="#m1a342b93e1" x="278.794934" y="312.24351" style="stroke: #000000; stroke-width: 0.8"/>
      </g>
     </g>
     <g id="text_3">
      <!-- 30 -->
      <g transform="translate(272.432434 326.841947) scale(0.1 -0.1)">
       <defs>
        <path id="DejaVuSans-33" d="M 2597 2516 
Q 3050 2419 3304 2112 
Q 3559 1806 3559 1356 
Q 3559 666 3084 287 
Q 2609 -91 1734 -91 
Q 1441 -91 1130 -33 
Q 819 25 488 141 
L 488 750 
Q 750 597 1062 519 
Q 1375 441 1716 441 
Q 2309 441 2620 675 
Q 2931 909 2931 1356 
Q 2931 1769 2642 2001 
Q 2353 2234 1838 2234 
L 1294 2234 
L 1294 2753 
L 1863 2753 
Q 2328 2753 2575 2939 
Q 2822 3125 2822 3475 
Q 2822 3834 2567 4026 
Q 2313 4219 1838 4219 
Q 1578 4219 1281 4162 
Q 984 4106 628 3988 
L 628 4550 
Q 988 4650 1302 4700 
Q 1616 4750 1894 4750 
Q 2613 4750 3031 4423 
Q 3450 4097 3450 3541 
Q 3450 3153 3228 2886 
Q 3006 2619 2597 2516 
z
" transform="scale(0.015625)"/>
       </defs>
       <use xlink:href="#DejaVuSans-33"/>
       <use xlink:href="#DejaVuSans-30" transform="translate(63.623047 0)"/>
      </g>
     </g>
    </g>
    <g id="xtick_4">
     <g id="line2d_4">
      <g>
       <use xlink:href="#m1a342b93e1" x="363.231173" y="312.24351" style="stroke: #000000; stroke-width: 0.8"/>
      </g>
     </g>
     <g id="text_4">
      <!-- 40 -->
      <g transform="translate(356.868673 326.841947) scale(0.1 -0.1)">
       <defs>
        <path id="DejaVuSans-34" d="M 2419 4116 
L 825 1625 
L 2419 1625 
L 2419 4116 
z
M 2253 4666 
L 3047 4666 
L 3047 1625 
L 3713 1625 
L 3713 1100 
L 3047 1100 
L 3047 0 
L 2419 0 
L 2419 1100 
L 313 1100 
L 313 1709 
L 2253 4666 
z
" transform="scale(0.015625)"/>
       </defs>
       <use xlink:href="#DejaVuSans-34"/>
       <use xlink:href="#DejaVuSans-30" transform="translate(63.623047 0)"/>
      </g>
     </g>
    </g>
    <g id="xtick_5">
     <g id="line2d_5">
      <g>
       <use xlink:href="#m1a342b93e1" x="447.667411" y="312.24351" style="stroke: #000000; stroke-width: 0.8"/>
      </g>
     </g>
     <g id="text_5">
      <!-- 50 -->
      <g transform="translate(441.304911 326.841947) scale(0.1 -0.1)">
       <defs>
        <path id="DejaVuSans-35" d="M 691 4666 
L 3169 4666 
L 3169 4134 
L 1269 4134 
L 1269 2991 
Q 1406 3038 1543 3061 
Q 1681 3084 1819 3084 
Q 2600 3084 3056 2656 
Q 3513 2228 3513 1497 
Q 3513 744 3044 326 
Q 2575 -91 1722 -91 
Q 1428 -91 1123 -41 
Q 819 9 494 109 
L 494 744 
Q 775 591 1075 516 
Q 1375 441 1709 441 
Q 2250 441 2565 725 
Q 2881 1009 2881 1497 
Q 2881 1984 2565 2268 
Q 2250 2553 1709 2553 
Q 1456 2553 1204 2497 
Q 953 2441 691 2322 
L 691 4666 
z
" transform="scale(0.015625)"/>
       </defs>
       <use xlink:href="#DejaVuSans-35"/>
       <use xlink:href="#DejaVuSans-30" transform="translate(63.623047 0)"/>
      </g>
     </g>
    </g>
    <g id="text_6">
     <!-- length -->
     <g transform="translate(237.526562 340.520072) scale(0.1 -0.1)">
      <defs>
       <path id="DejaVuSans-6c" d="M 603 4863 
L 1178 4863 
L 1178 0 
L 603 0 
L 603 4863 
z
" transform="scale(0.015625)"/>
       <path id="DejaVuSans-65" d="M 3597 1894 
L 3597 1613 
L 953 1613 
Q 991 1019 1311 708 
Q 1631 397 2203 397 
Q 2534 397 2845 478 
Q 3156 559 3463 722 
L 3463 178 
Q 3153 47 2828 -22 
Q 2503 -91 2169 -91 
Q 1331 -91 842 396 
Q 353 884 353 1716 
Q 353 2575 817 3079 
Q 1281 3584 2069 3584 
Q 2775 3584 3186 3129 
Q 3597 2675 3597 1894 
z
M 3022 2063 
Q 3016 2534 2758 2815 
Q 2500 3097 2075 3097 
Q 1594 3097 1305 2825 
Q 1016 2553 972 2059 
L 3022 2063 
z
" transform="scale(0.015625)"/>
       <path id="DejaVuSans-6e" d="M 3513 2113 
L 3513 0 
L 2938 0 
L 2938 2094 
Q 2938 2591 2744 2837 
Q 2550 3084 2163 3084 
Q 1697 3084 1428 2787 
Q 1159 2491 1159 1978 
L 1159 0 
L 581 0 
L 581 3500 
L 1159 3500 
L 1159 2956 
Q 1366 3272 1645 3428 
Q 1925 3584 2291 3584 
Q 2894 3584 3203 3211 
Q 3513 2838 3513 2113 
z
" transform="scale(0.015625)"/>
       <path id="DejaVuSans-67" d="M 2906 1791 
Q 2906 2416 2648 2759 
Q 2391 3103 1925 3103 
Q 1463 3103 1205 2759 
Q 947 2416 947 1791 
Q 947 1169 1205 825 
Q 1463 481 1925 481 
Q 2391 481 2648 825 
Q 2906 1169 2906 1791 
z
M 3481 434 
Q 3481 -459 3084 -895 
Q 2688 -1331 1869 -1331 
Q 1566 -1331 1297 -1286 
Q 1028 -1241 775 -1147 
L 775 -588 
Q 1028 -725 1275 -790 
Q 1522 -856 1778 -856 
Q 2344 -856 2625 -561 
Q 2906 -266 2906 331 
L 2906 616 
Q 2728 306 2450 153 
Q 2172 0 1784 0 
Q 1141 0 747 490 
Q 353 981 353 1791 
Q 353 2603 747 3093 
Q 1141 3584 1784 3584 
Q 2172 3584 2450 3431 
Q 2728 3278 2906 2969 
L 2906 3500 
L 3481 3500 
L 3481 434 
z
" transform="scale(0.015625)"/>
       <path id="DejaVuSans-74" d="M 1172 4494 
L 1172 3500 
L 2356 3500 
L 2356 3053 
L 1172 3053 
L 1172 1153 
Q 1172 725 1289 603 
Q 1406 481 1766 481 
L 2356 481 
L 2356 0 
L 1766 0 
Q 1100 0 847 248 
Q 594 497 594 1153 
L 594 3053 
L 172 3053 
L 172 3500 
L 594 3500 
L 594 4494 
L 1172 4494 
z
" transform="scale(0.015625)"/>
       <path id="DejaVuSans-68" d="M 3513 2113 
L 3513 0 
L 2938 0 
L 2938 2094 
Q 2938 2591 2744 2837 
Q 2550 3084 2163 3084 
Q 1697 3084 1428 2787 
Q 1159 2491 1159 1978 
L 1159 0 
L 581 0 
L 581 4863 
L 1159 4863 
L 1159 2956 
Q 1366 3272 1645 3428 
Q 1925 3584 2291 3584 
Q 2894 3584 3203 3211 
Q 3513 2838 3513 2113 
z
" transform="scale(0.015625)"/>
      </defs>
      <use xlink:href="#DejaVuSans-6c"/>
      <use xlink:href="#DejaVuSans-65" transform="translate(27.783203 0)"/>
      <use xlink:href="#DejaVuSans-6e" transform="translate(89.306641 0)"/>
      <use xlink:href="#DejaVuSans-67" transform="translate(152.685547 0)"/>
      <use xlink:href="#DejaVuSans-74" transform="translate(216.162109 0)"/>
      <use xlink:href="#DejaVuSans-68" transform="translate(255.371094 0)"/>
     </g>
    </g>
   </g>
   <g id="matplotlib.axis_2">
    <g id="ytick_1">
     <g id="line2d_6">
      <defs>
       <path id="ma0d4f129d3" d="M 0 0 
L -3.5 0 
" style="stroke: #000000; stroke-width: 0.8"/>
      </defs>
      <g>
       <use xlink:href="#ma0d4f129d3" x="49.128365" y="312.24351" style="stroke: #000000; stroke-width: 0.8"/>
      </g>
     </g>
     <g id="text_7">
      <!-- 0 -->
      <g transform="translate(35.765865 316.042729) scale(0.1 -0.1)">
       <use xlink:href="#DejaVuSans-30"/>
      </g>
     </g>
    </g>
    <g id="ytick_2">
     <g id="line2d_7">
      <g>
       <use xlink:href="#ma0d4f129d3" x="49.128365" y="257.854332" style="stroke: #000000; stroke-width: 0.8"/>
      </g>
     </g>
     <g id="text_8">
      <!-- 200 -->
      <g transform="translate(23.040865 261.653551) scale(0.1 -0.1)">
       <use xlink:href="#DejaVuSans-32"/>
       <use xlink:href="#DejaVuSans-30" transform="translate(63.623047 0)"/>
       <use xlink:href="#DejaVuSans-30" transform="translate(127.246094 0)"/>
      </g>
     </g>
    </g>
    <g id="ytick_3">
     <g id="line2d_8">
      <g>
       <use xlink:href="#ma0d4f129d3" x="49.128365" y="203.465154" style="stroke: #000000; stroke-width: 0.8"/>
      </g>
     </g>
     <g id="text_9">
      <!-- 400 -->
      <g transform="translate(23.040865 207.264372) scale(0.1 -0.1)">
       <use xlink:href="#DejaVuSans-34"/>
       <use xlink:href="#DejaVuSans-30" transform="translate(63.623047 0)"/>
       <use xlink:href="#DejaVuSans-30" transform="translate(127.246094 0)"/>
      </g>
     </g>
    </g>
    <g id="ytick_4">
     <g id="line2d_9">
      <g>
       <use xlink:href="#ma0d4f129d3" x="49.128365" y="149.075975" style="stroke: #000000; stroke-width: 0.8"/>
      </g>
     </g>
     <g id="text_10">
      <!-- 600 -->
      <g transform="translate(23.040865 152.875194) scale(0.1 -0.1)">
       <defs>
        <path id="DejaVuSans-36" d="M 2113 2584 
Q 1688 2584 1439 2293 
Q 1191 2003 1191 1497 
Q 1191 994 1439 701 
Q 1688 409 2113 409 
Q 2538 409 2786 701 
Q 3034 994 3034 1497 
Q 3034 2003 2786 2293 
Q 2538 2584 2113 2584 
z
M 3366 4563 
L 3366 3988 
Q 3128 4100 2886 4159 
Q 2644 4219 2406 4219 
Q 1781 4219 1451 3797 
Q 1122 3375 1075 2522 
Q 1259 2794 1537 2939 
Q 1816 3084 2150 3084 
Q 2853 3084 3261 2657 
Q 3669 2231 3669 1497 
Q 3669 778 3244 343 
Q 2819 -91 2113 -91 
Q 1303 -91 875 529 
Q 447 1150 447 2328 
Q 447 3434 972 4092 
Q 1497 4750 2381 4750 
Q 2619 4750 2861 4703 
Q 3103 4656 3366 4563 
z
" transform="scale(0.015625)"/>
       </defs>
       <use xlink:href="#DejaVuSans-36"/>
       <use xlink:href="#DejaVuSans-30" transform="translate(63.623047 0)"/>
       <use xlink:href="#DejaVuSans-30" transform="translate(127.246094 0)"/>
      </g>
     </g>
    </g>
    <g id="ytick_5">
     <g id="line2d_10">
      <g>
       <use xlink:href="#ma0d4f129d3" x="49.128365" y="94.686797" style="stroke: #000000; stroke-width: 0.8"/>
      </g>
     </g>
     <g id="text_11">
      <!-- 800 -->
      <g transform="translate(23.040865 98.486016) scale(0.1 -0.1)">
       <defs>
        <path id="DejaVuSans-38" d="M 2034 2216 
Q 1584 2216 1326 1975 
Q 1069 1734 1069 1313 
Q 1069 891 1326 650 
Q 1584 409 2034 409 
Q 2484 409 2743 651 
Q 3003 894 3003 1313 
Q 3003 1734 2745 1975 
Q 2488 2216 2034 2216 
z
M 1403 2484 
Q 997 2584 770 2862 
Q 544 3141 544 3541 
Q 544 4100 942 4425 
Q 1341 4750 2034 4750 
Q 2731 4750 3128 4425 
Q 3525 4100 3525 3541 
Q 3525 3141 3298 2862 
Q 3072 2584 2669 2484 
Q 3125 2378 3379 2068 
Q 3634 1759 3634 1313 
Q 3634 634 3220 271 
Q 2806 -91 2034 -91 
Q 1263 -91 848 271 
Q 434 634 434 1313 
Q 434 1759 690 2068 
Q 947 2378 1403 2484 
z
M 1172 3481 
Q 1172 3119 1398 2916 
Q 1625 2713 2034 2713 
Q 2441 2713 2670 2916 
Q 2900 3119 2900 3481 
Q 2900 3844 2670 4047 
Q 2441 4250 2034 4250 
Q 1625 4250 1398 4047 
Q 1172 3844 1172 3481 
z
" transform="scale(0.015625)"/>
       </defs>
       <use xlink:href="#DejaVuSans-38"/>
       <use xlink:href="#DejaVuSans-30" transform="translate(63.623047 0)"/>
       <use xlink:href="#DejaVuSans-30" transform="translate(127.246094 0)"/>
      </g>
     </g>
    </g>
    <g id="ytick_6">
     <g id="line2d_11">
      <g>
       <use xlink:href="#ma0d4f129d3" x="49.128365" y="40.297619" style="stroke: #000000; stroke-width: 0.8"/>
      </g>
     </g>
     <g id="text_12">
      <!-- 1000 -->
      <g transform="translate(16.678365 44.096838) scale(0.1 -0.1)">
       <use xlink:href="#DejaVuSans-31"/>
       <use xlink:href="#DejaVuSans-30" transform="translate(63.623047 0)"/>
       <use xlink:href="#DejaVuSans-30" transform="translate(127.246094 0)"/>
       <use xlink:href="#DejaVuSans-30" transform="translate(190.869141 0)"/>
      </g>
     </g>
    </g>
    <g id="text_13">
     <!-- count -->
     <g transform="translate(10.598677 171.728125) rotate(-90) scale(0.1 -0.1)">
      <defs>
       <path id="DejaVuSans-63" d="M 3122 3366 
L 3122 2828 
Q 2878 2963 2633 3030 
Q 2388 3097 2138 3097 
Q 1578 3097 1268 2742 
Q 959 2388 959 1747 
Q 959 1106 1268 751 
Q 1578 397 2138 397 
Q 2388 397 2633 464 
Q 2878 531 3122 666 
L 3122 134 
Q 2881 22 2623 -34 
Q 2366 -91 2075 -91 
Q 1284 -91 818 406 
Q 353 903 353 1747 
Q 353 2603 823 3093 
Q 1294 3584 2113 3584 
Q 2378 3584 2631 3529 
Q 2884 3475 3122 3366 
z
" transform="scale(0.015625)"/>
       <path id="DejaVuSans-6f" d="M 1959 3097 
Q 1497 3097 1228 2736 
Q 959 2375 959 1747 
Q 959 1119 1226 758 
Q 1494 397 1959 397 
Q 2419 397 2687 759 
Q 2956 1122 2956 1747 
Q 2956 2369 2687 2733 
Q 2419 3097 1959 3097 
z
M 1959 3584 
Q 2709 3584 3137 3096 
Q 3566 2609 3566 1747 
Q 3566 888 3137 398 
Q 2709 -91 1959 -91 
Q 1206 -91 779 398 
Q 353 888 353 1747 
Q 353 2609 779 3096 
Q 1206 3584 1959 3584 
z
" transform="scale(0.015625)"/>
       <path id="DejaVuSans-75" d="M 544 1381 
L 544 3500 
L 1119 3500 
L 1119 1403 
Q 1119 906 1312 657 
Q 1506 409 1894 409 
Q 2359 409 2629 706 
Q 2900 1003 2900 1516 
L 2900 3500 
L 3475 3500 
L 3475 0 
L 2900 0 
L 2900 538 
Q 2691 219 2414 64 
Q 2138 -91 1772 -91 
Q 1169 -91 856 284 
Q 544 659 544 1381 
z
M 1991 3584 
L 1991 3584 
z
" transform="scale(0.015625)"/>
      </defs>
      <use xlink:href="#DejaVuSans-63"/>
      <use xlink:href="#DejaVuSans-6f" transform="translate(54.980469 0)"/>
      <use xlink:href="#DejaVuSans-75" transform="translate(116.162109 0)"/>
      <use xlink:href="#DejaVuSans-6e" transform="translate(179.541016 0)"/>
      <use xlink:href="#DejaVuSans-74" transform="translate(242.919922 0)"/>
     </g>
    </g>
   </g>
   <g id="patch_91">
    <path d="M 49.128365 312.24351 
L 49.128365 3.00024 
" style="fill: none; stroke: #000000; stroke-width: 0.8; stroke-linejoin: miter; stroke-linecap: square"/>
   </g>
   <g id="patch_92">
    <path d="M 457.79976 312.24351 
L 457.79976 3.00024 
" style="fill: none; stroke: #000000; stroke-width: 0.8; stroke-linejoin: miter; stroke-linecap: square"/>
   </g>
   <g id="patch_93">
    <path d="M 49.128365 312.24351 
L 457.79976 312.24351 
" style="fill: none; stroke: #000000; stroke-width: 0.8; stroke-linejoin: miter; stroke-linecap: square"/>
   </g>
   <g id="patch_94">
    <path d="M 49.128365 3.00024 
L 457.79976 3.00024 
" style="fill: none; stroke: #000000; stroke-width: 0.8; stroke-linejoin: miter; stroke-linecap: square"/>
   </g>
   <g id="legend_1">
    <g id="patch_95">
     <path d="M 343.026322 40.35649 
L 450.79976 40.35649 
Q 452.79976 40.35649 452.79976 38.35649 
L 452.79976 10.00024 
Q 452.79976 8.00024 450.79976 8.00024 
L 343.026322 8.00024 
Q 341.026322 8.00024 341.026322 10.00024 
L 341.026322 38.35649 
Q 341.026322 40.35649 343.026322 40.35649 
z
" style="fill: #ffffff; opacity: 0.8; stroke: #cccccc; stroke-linejoin: miter"/>
    </g>
    <g id="patch_96">
     <path d="M 345.026322 19.598678 
L 365.026322 19.598678 
L 365.026322 12.598678 
L 345.026322 12.598678 
z
" style="fill: #808080; opacity: 0.6"/>
    </g>
    <g id="text_14">
     <!-- peptides -->
     <g transform="translate(373.026322 19.598678) scale(0.1 -0.1)">
      <defs>
       <path id="DejaVuSans-70" d="M 1159 525 
L 1159 -1331 
L 581 -1331 
L 581 3500 
L 1159 3500 
L 1159 2969 
Q 1341 3281 1617 3432 
Q 1894 3584 2278 3584 
Q 2916 3584 3314 3078 
Q 3713 2572 3713 1747 
Q 3713 922 3314 415 
Q 2916 -91 2278 -91 
Q 1894 -91 1617 61 
Q 1341 213 1159 525 
z
M 3116 1747 
Q 3116 2381 2855 2742 
Q 2594 3103 2138 3103 
Q 1681 3103 1420 2742 
Q 1159 2381 1159 1747 
Q 1159 1113 1420 752 
Q 1681 391 2138 391 
Q 2594 391 2855 752 
Q 3116 1113 3116 1747 
z
" transform="scale(0.015625)"/>
       <path id="DejaVuSans-69" d="M 603 3500 
L 1178 3500 
L 1178 0 
L 603 0 
L 603 3500 
z
M 603 4863 
L 1178 4863 
L 1178 4134 
L 603 4134 
L 603 4863 
z
" transform="scale(0.015625)"/>
       <path id="DejaVuSans-64" d="M 2906 2969 
L 2906 4863 
L 3481 4863 
L 3481 0 
L 2906 0 
L 2906 525 
Q 2725 213 2448 61 
Q 2172 -91 1784 -91 
Q 1150 -91 751 415 
Q 353 922 353 1747 
Q 353 2572 751 3078 
Q 1150 3584 1784 3584 
Q 2172 3584 2448 3432 
Q 2725 3281 2906 2969 
z
M 947 1747 
Q 947 1113 1208 752 
Q 1469 391 1925 391 
Q 2381 391 2643 752 
Q 2906 1113 2906 1747 
Q 2906 2381 2643 2742 
Q 2381 3103 1925 3103 
Q 1469 3103 1208 2742 
Q 947 2381 947 1747 
z
" transform="scale(0.015625)"/>
       <path id="DejaVuSans-73" d="M 2834 3397 
L 2834 2853 
Q 2591 2978 2328 3040 
Q 2066 3103 1784 3103 
Q 1356 3103 1142 2972 
Q 928 2841 928 2578 
Q 928 2378 1081 2264 
Q 1234 2150 1697 2047 
L 1894 2003 
Q 2506 1872 2764 1633 
Q 3022 1394 3022 966 
Q 3022 478 2636 193 
Q 2250 -91 1575 -91 
Q 1294 -91 989 -36 
Q 684 19 347 128 
L 347 722 
Q 666 556 975 473 
Q 1284 391 1588 391 
Q 1994 391 2212 530 
Q 2431 669 2431 922 
Q 2431 1156 2273 1281 
Q 2116 1406 1581 1522 
L 1381 1569 
Q 847 1681 609 1914 
Q 372 2147 372 2553 
Q 372 3047 722 3315 
Q 1072 3584 1716 3584 
Q 2034 3584 2315 3537 
Q 2597 3491 2834 3397 
z
" transform="scale(0.015625)"/>
      </defs>
      <use xlink:href="#DejaVuSans-70"/>
      <use xlink:href="#DejaVuSans-65" transform="translate(63.476562 0)"/>
      <use xlink:href="#DejaVuSans-70" transform="translate(125 0)"/>
      <use xlink:href="#DejaVuSans-74" transform="translate(188.476562 0)"/>
      <use xlink:href="#DejaVuSans-69" transform="translate(227.685547 0)"/>
      <use xlink:href="#DejaVuSans-64" transform="translate(255.46875 0)"/>
      <use xlink:href="#DejaVuSans-65" transform="translate(318.945312 0)"/>
      <use xlink:href="#DejaVuSans-73" transform="translate(380.46875 0)"/>
     </g>
    </g>
    <g id="patch_97">
     <path d="M 345.026322 34.276803 
L 365.026322 34.276803 
L 365.026322 27.276803 
L 345.026322 27.276803 
z
" style="fill: #ff0000; opacity: 0.6"/>
    </g>
    <g id="text_15">
     <!-- whole epitopes -->
     <g transform="translate(373.026322 34.276803) scale(0.1 -0.1)">
      <defs>
       <path id="DejaVuSans-77" d="M 269 3500 
L 844 3500 
L 1563 769 
L 2278 3500 
L 2956 3500 
L 3675 769 
L 4391 3500 
L 4966 3500 
L 4050 0 
L 3372 0 
L 2619 2869 
L 1863 0 
L 1184 0 
L 269 3500 
z
" transform="scale(0.015625)"/>
       <path id="DejaVuSans-20" transform="scale(0.015625)"/>
      </defs>
      <use xlink:href="#DejaVuSans-77"/>
      <use xlink:href="#DejaVuSans-68" transform="translate(81.787109 0)"/>
      <use xlink:href="#DejaVuSans-6f" transform="translate(145.166016 0)"/>
      <use xlink:href="#DejaVuSans-6c" transform="translate(206.347656 0)"/>
      <use xlink:href="#DejaVuSans-65" transform="translate(234.130859 0)"/>
      <use xlink:href="#DejaVuSans-20" transform="translate(295.654297 0)"/>
      <use xlink:href="#DejaVuSans-65" transform="translate(327.441406 0)"/>
      <use xlink:href="#DejaVuSans-70" transform="translate(388.964844 0)"/>
      <use xlink:href="#DejaVuSans-69" transform="translate(452.441406 0)"/>
      <use xlink:href="#DejaVuSans-74" transform="translate(480.224609 0)"/>
      <use xlink:href="#DejaVuSans-6f" transform="translate(519.433594 0)"/>
      <use xlink:href="#DejaVuSans-70" transform="translate(580.615234 0)"/>
      <use xlink:href="#DejaVuSans-65" transform="translate(644.091797 0)"/>
      <use xlink:href="#DejaVuSans-73" transform="translate(705.615234 0)"/>
     </g>
    </g>
   </g>
  </g>
 </g>
 <defs>
  <clipPath id="p3508be2e55">
   <rect x="49.128365" y="3.00024" width="408.671395" height="309.24327"/>
  </clipPath>
 </defs>
</svg>
